<?xml version="1.0" encoding="UTF-8" standalone="no"?>
<!-- Created with Inkscape (http://www.inkscape.org/) -->

<svg
   xmlns:dc="http://purl.org/dc/elements/1.1/"
   xmlns:cc="http://creativecommons.org/ns#"
   xmlns:rdf="http://www.w3.org/1999/02/22-rdf-syntax-ns#"
   xmlns:svg="http://www.w3.org/2000/svg"
   xmlns="http://www.w3.org/2000/svg"
   xmlns:sodipodi="http://sodipodi.sourceforge.net/DTD/sodipodi-0.dtd"
   xmlns:inkscape="http://www.inkscape.org/namespaces/inkscape"
   width="744.09003"
   height="495"
   id="svg3255"
   version="1.1"
   inkscape:version="0.48.0 r9654"
   sodipodi:docname="Game_Party_logo.svg">
  <defs
     id="defs3257">
    <filter
       color-interpolation-filters="sRGB"
       inkscape:collect="always"
       id="filter4131">
      <feGaussianBlur
         inkscape:collect="always"
         stdDeviation="7.7024021"
         id="feGaussianBlur4133" />
    </filter>
  </defs>
  <sodipodi:namedview
     id="base"
     pagecolor="#ffffff"
     bordercolor="#666666"
     borderopacity="1.0"
     inkscape:pageopacity="0.0"
     inkscape:pageshadow="2"
     inkscape:zoom="0.85975213"
     inkscape:cx="687.43445"
     inkscape:cy="170.44576"
     inkscape:document-units="px"
     inkscape:current-layer="layer1"
     showgrid="false"
     inkscape:window-width="1366"
     inkscape:window-height="691"
     inkscape:window-x="0"
     inkscape:window-y="24"
     inkscape:window-maximized="1" />
  <metadata
     id="metadata3260">
    <rdf:RDF>
      <cc:Work
         rdf:about="">
        <dc:format>image/svg+xml</dc:format>
        <dc:type
           rdf:resource="http://purl.org/dc/dcmitype/StillImage" />
        <dc:title />
      </cc:Work>
    </rdf:RDF>
  </metadata>
  <g
     inkscape:label="Livello 1"
     inkscape:groupmode="layer"
     id="layer1"
     transform="translate(0,-557.36178)">
    <g
       id="g2999">
      <path
         id="path3295"
         d="m 154.30751,574.67037 c -5.31806,-0.0423 -10.74298,0.10785 -16.34375,0.625 -17.51391,1.6181 -34.433,6.3853 -49.781255,14.5625 l -0.0312,-0.0625 c 0.0305,-0.0151 -0.24915,0.14032 -0.21875,0.125 a 28.628191,28.628191 0 0 0 -0.75,0.40625 28.628191,28.628191 0 0 0 -0.21875,0.0937 c -15.05267,8.3122 -28.11635,19.68975 -38.34375,33.375 -10.20239,13.65217 -17.20717,29.30898 -21.40625,45.90625 -0.0694,0.25386 -0.15178,0.41977 -0.21875,0.6875 -0.002,0.01 0.002,0.0215 0,0.0312 -0.006,0.0257 -0.0249,0.0367 -0.0312,0.0625 -4.23738,16.93321 -5.35559,34.69248 -3.6875,52.75 1.66892,18.06674 5.97565,35.32642 13.5625,51.0625 6.77187,14.04589 16.29888,26.44903 27.78125,36.84375 0.37973,-0.21916 0.0627,17.05655 -0.3125,14.96875 l 31.53125,175.68753 a 28.628191,28.628191 0 0 0 0.0312,0.031 c -0.39586,-2.1875 6.952275,16.4636 5.749995,14.5937 -1.20228,-1.8699 12.70094,12.5805 10.875,11.3125 -1.82594,-1.268 16.57832,6.7234 14.40626,6.25 -2.17206,-0.4734 17.8755,-0.081 15.6875,0.3125 l 49.21875,-8.8437 a 28.628191,28.628191 0 0 0 0.0312,-0.031 c -2.18752,0.3958 16.46363,-6.9523 14.59375,-5.75 -1.6507,1.0613 8.19601,-8.3827 9.9375,-9.6563 1.05962,0.894 2.07759,1.8162 3.1875,2.6563 a 28.628191,28.628191 0 0 0 0.5,0.375 c -0.12569,-0.091 0.4437,0.3036 0.90625,0.625 0.25495,0.1771 0.57135,0.3909 0.5,0.3437 l 0.0312,-0.031 c 9.1355,6.2154 19.34636,10.3135 29.90625,12.2813 7.83444,1.4598 16.00124,1.7828 24.1875,0.6875 0.0203,0 0.0422,0 0.0625,0 0.1562,-0.022 0.087,-0.01 0.25,-0.031 0.015,0.01 0.0163,-0.01 0.0312,0 3.62254,1.4353 7.25519,2.9414 6.34375,2.7812 -0.005,-9e-4 0.037,0.032 0.0312,0.031 l 0,-0.031 44.71875,8.3438 a 28.628191,28.628191 0 0 0 0,0.031 c -2.1882,-0.4074 17.89618,-0.6802 15.71875,-0.2188 -2.17743,0.4614 16.27238,-7.4474 14.4375,-6.1875 -1.83488,1.2599 12.18149,-13.1164 10.96875,-11.25 -0.43475,0.6691 0.84526,-2.6138 1.875,-5.3125 5.13902,0.4142 11.6013,1.0754 10.15625,1.2188 l 48.25,-4.7813 a 28.628191,28.628191 0 0 0 0.0625,-0.031 c -2.21141,0.2229 16.95819,-5.6139 15,-4.5625 -0.2371,0.1273 1.19301,-1.0542 1.40625,-1.2812 12.34824,12.4305 28.61364,19.0233 44.5,21.2187 -5.31264,-0.7007 -5.3147,-0.6368 0.84375,0.1563 a 28.628191,28.628191 0 0 0 0.53125,0.031 28.628191,28.628191 0 0 0 0.21875,0.031 28.628191,28.628191 0 0 0 1.40625,0.094 c 1.94224,0.2606 3.82359,0.5533 6.125,0.6875 3.04045,0.1772 5.46816,0.1491 7.25,0.125 -2.35903,0.032 -1.93298,0.1017 1.28125,0.031 a 28.628191,28.628191 0 0 0 0.6876,-0.062 c 2.12754,0.064 4.22533,0.1756 6.9375,0.031 2.90168,-0.1545 6.07455,-0.4035 9.8125,-0.6875 a 28.628191,28.628191 0 0 0 0.25,0 c -0.44753,0.038 1.56641,-0.2931 3.125,-0.625 l 0,0.031 8.28125,-0.8438 a 28.628191,28.628191 0 0 0 1.125,-0.1875 c 1.81502,-0.1537 3.6687,-0.2674 5.3125,-0.5 0.67281,-0.095 1.1868,-0.1777 1.71875,-0.25 a 28.628191,28.628191 0 0 0 0.5625,-0.062 c 0.0594,-0.01 0.12696,-0.023 0.1875,-0.031 a 28.628191,28.628191 0 0 0 0.8125,-0.094 c -1.31467,0.1837 5.23907,-1.7079 8.96875,-2.75 0.51539,0.5317 1.84369,1.9062 1.84375,1.9063 3.7e-4,2e-4 12.56196,3.7187 12.5625,3.7187 0.95957,0.057 1.3167,0.082 1.96875,0.125 a 28.628191,28.628191 0 0 0 0.8125,0 c 1.85648,0.2037 3.7713,0.3981 5.90625,0.5 l 0,0.031 c 1.28401,0.098 1.53017,0.1237 0.6875,0.062 0.1705,0.012 0.32988,0.019 0.5,0.031 0.0318,0 0.062,0 0.0937,0 3.04796,0.2105 6.04146,0.342 8.96875,0.4063 -1.80501,-0.04 -1.5921,-0.01 0.65625,0.031 a 28.628191,28.628191 0 0 0 0.5,-0.031 c 2.29954,0.1218 4.85324,0.1459 7.65625,0.031 a 28.628191,28.628191 0 0 0 2.53125,-0.031 c 3.52793,-0.2546 2.96939,-0.2602 0.28125,-0.062 -0.83882,0.063 0.5312,-0.038 0.0312,0 -1.99979,0.1529 -3.29984,0.2609 0.125,0 19.26982,-1.468 39.21332,-8.3229 54,-23.6563 0.031,-0.032 0.0628,-0.061 0.0937,-0.094 0.0103,-0.011 0.0209,-0.021 0.0312,-0.031 -0.82314,0.8582 -0.79366,0.832 0.0625,-0.062 13.42869,-13.88304 20.76496,-31.22591 25.28145,-49.28125 a 28.628191,28.628191 0 0 0 0,-0.0937 l 0.0625,-0.3125 41.40625,-167.0625 a 28.628191,28.628191 0 0 0 0.0312,-0.0625 c -0.64279,2.62311 -0.60124,-21.62561 0.0312,-19 0.23597,0.97954 -1.28069,-1.726 -3.03125,-5 0.48913,-1.37233 7.69778,-13.39263 7.03125,-11.59375 -0.73677,1.98845 2.45874,-16.87016 2.5,-14.75 0.0413,2.12016 -3.87608,-16.61453 -3.0625,-14.65625 a 28.628191,28.628191 0 0 0 -0.0312,-0.0625 l -9.46875,-22.65625 c 0.62347,1.49202 -3.84206,-5.09212 -6.5625,-9.34375 -0.52884,0.54926 4.52857,-15.45173 4.28125,-13.46875 -0.25579,2.05091 -1.3365,-16.5697 -0.84375,-14.5625 a 28.628191,28.628191 0 0 0 -0.0312,-0.0312 l -1.78125,-7.28125 -0.0312,-0.125 a 28.628191,28.628191 0 0 0 -0.28125,-1.1875 c -1.68917,-6.80045 -3.6175,-12.93216 -5.84375,-18.75 a 28.628191,28.628191 0 0 0 -0.4375,-1.34375 c -1.05597,-2.891 -1.1504,-3.07477 -0.21875,-0.5625 a 28.628191,28.628191 0 0 0 0,-0.0312 c -0.0429,-0.11577 -0.11291,-0.22793 -0.15625,-0.34375 -2.2298,-5.95937 -4.99817,-11.96871 -8.78125,-17.84375 l 0.0312,-0.0312 c 0.76262,1.20244 0.71466,1.14319 -0.15625,-0.21875 -0.008,-0.0121 -0.0235,-0.0192 -0.0312,-0.0312 -4.01112,-6.26555 -9.04575,-12.18695 -15.21875,-17.21875 -3.8148,-3.10893 -7.84525,-5.97357 -12.03125,-8.6875 4.20086,2.71332 4.20804,2.67126 -0.375,-0.28125 a 28.628191,28.628191 0 0 0 -2.84375,-1.59375 c -10.25291,-6.19007 -21.7018,-10.21802 -33.625,-11.625 -0.002,-2.1e-4 0.002,-0.031 0,-0.0312 -0.25516,-0.033 -0.3605,-0.0646 -0.34375,-0.0625 -0.0409,-0.005 -0.0841,0.005 -0.125,0 -2.95313,-0.36701 -5.93258,-0.62702 -8.96875,-0.71875 -9.58887,-0.2897 -19.00278,0.89051 -28,3.125 -14.01433,3.48082 -27.34876,9.57738 -39.0312,18.4061 l -0.0312,-0.0312 c 0.0458,-0.0302 -0.38927,0.24942 -0.34375,0.21875 a 28.628191,28.628191 0 0 0 -1.78125,1.34375 28.628191,28.628191 0 0 0 -0.28125,0.1875 c -8.67505,7.04849 -16.04495,15.43475 -21.96875,24.75 -7.19085,-1.93533 -14.61845,-2.8748 -22.03125,-2.875 -13.47238,1.7e-4 -26.33112,2.95913 -39.03125,7.53125 -0.17121,-0.0874 -0.29564,-0.19469 -0.46875,-0.28125 -10.77586,-5.38743 -22.34794,-7.50638 -33.40625,-7.25 1.3175,-0.0307 1.28334,-0.0334 -0.0937,0 1.40459,-0.0344 1.23086,-0.0515 -0.46875,0 a 28.628191,28.628191 0 0 0 -1.59375,0.125 c -5.86657,0.19376 -11.65168,0.99589 -17.3125,2.3125 -4.1486,-1.50868 -10.31375,-3.92549 -8.96875,-3.65625 1.91868,0.38408 -15.77916,-0.0556 -13.84375,-0.34375 a 28.628191,28.628191 0 0 0 -0.0312,0 l -28.21895,4.21845 c -1.09671,-1.30336 -2.18086,-2.62606 -3.375,-3.84375 l -0.125,0.125 c -1.71966,-2.01129 -3.52083,-4.00498 -3.03125,-3.5625 a 28.628191,28.628191 0 0 0 -0.0312,-0.0312 c -15.40975,-13.86519 -35.05078,-20.19524 -54.375,-21.46875 -6.27497,-0.41324 -12.64118,-0.36769 -19.34375,0 a 28.628191,28.628191 0 0 0 -2.03125,0.21875 c -6.28943,0.43118 -12.6826,1.14599 -19.1875,2.375 a 28.628191,28.628191 0 0 0 -0.75,0.15625 c -2.71797,0.56567 -5.88243,1.19844 -9.40625,1.875 1.08476,-0.20826 1.00709,-0.19639 -0.34375,0.0625 l 0,0.0312 c -3.67882,0.61569 -7.27827,1.31785 -10.75,2.0625 l 0.0625,0.34375 c -3.90272,0.62108 -7.80851,1.40422 -6.875,1.09375 a 28.628191,28.628191 0 0 0 -0.0312,0 l -0.625,0.21875 c -0.0111,-0.13075 -0.42018,-1.3808 -0.34375,-1.21875 0.81462,1.72712 -9.05873,-12.42303 -7.71875,-11.0625 1.33998,1.36053 -12.68328,-8.74707 -10.96875,-7.90625 1.71453,0.84082 -14.83362,-4.07023 -12.9375,-3.84375 l -8.375,-1 a 28.628191,28.628191 0 0 0 -0.15625,0 c 0.24593,0.0282 -1.01121,-0.047 -1.75,-0.0625 0.3418,0.0212 -0.13725,-0.0573 -1.625,-0.25 l 0,-0.0312 c -0.18493,-0.0235 -0.25574,-0.032 -0.25,-0.0312 -0.0995,-0.0126 -0.15249,-0.0193 -0.25,-0.0312 -0.99687,-0.12214 -1.77053,-0.17613 -2.5625,-0.25 0.13202,0.0179 -0.40166,-0.0343 -0.9375,-0.0937 -0.57316,-0.0636 -1.14198,-0.13729 -1,-0.125 l 0,0.0312 c 0.0577,0.007 -0.13029,-0.008 -0.0625,0 -2.00963,-0.24471 -3.88866,-0.3766 -5.78125,-0.53125 -0.0876,-0.0135 -0.10241,-0.0182 -0.1875,-0.0312 -1.28797,-0.19793 -2.33352,-0.35873 -2.84375,-0.4375 a 28.628191,28.628191 0 0 0 -0.25,-0.0312 c 0.38498,0.0561 -2.48015,-0.27153 -2.75,-0.3125 -0.0276,-0.004 -0.32093,-0.034 -0.28125,-0.0312 l 0,0.0312 c -5.89699,-0.45447 -11.61275,-0.61963 -17.125,-0.53125 -0.15414,-0.002 -0.31439,0.002 -0.46875,0 0.989,-0.0181 0.83603,-0.0271 -0.46875,0 z m 479.15625,69.59375 c 0.37376,1.32146 0.88814,3.23688 1.125,5.3125 0.30679,2.68848 0.24879,4.49006 0.0937,5.90625 -0.009,-0.20373 -0.0596,-0.65694 -0.0625,-0.78125 -0.004,0.15332 -0.0156,0.36649 -0.0625,0.96875 -0.009,0.11644 0.0104,0.29156 0.0312,0.375 -0.0327,0.22912 -0.0597,0.42748 -0.0937,0.625 0.31187,-2.50794 0.22213,-8.4252 -1.03125,-12.40625 z m 0.90625,13.25 c -0.0122,0.0634 -0.02,0.19068 -0.0312,0.25 l 0.0312,-0.0312 c -0.0701,0.41815 -0.29418,1.23847 -0.5,2.03125 0.11376,-0.40258 0.25914,-1.02801 0.40625,-1.8125 l -0.65625,-0.125 0.6875,-0.0625 c 0.0208,-0.11643 0.0413,-0.12253 0.0625,-0.25 z m -476.65625,198.15625 4.8125,5.3125 1.5625,1.71875 -3.25,0.625 -0.0312,0 -0.5,0.0937 -5.875,-3.96875 c 1.16114,-1.71842 2.42454,-3.00416 3.28125,-3.78125 z m -3.90625,4.78125 5.21875,3.21875 -7.40625,1.46875 -0.1875,0.0312 c -0.0322,-0.0352 -0.0632,-0.0596 -0.0937,-0.0937 0.53185,-1.2016 1.14387,-2.51531 2.375,-4.53125 -1.8e-4,3e-4 -1.30248,2.86971 -2.09375,4.59375 0.79197,-1.70905 2.18768,-4.6878 2.1875,-4.6875 z m -3.875,1.84375 c -0.1762,-0.36811 0.14872,0.78295 0.375,1.625 -0.59884,-0.99312 -0.24285,-1.34891 -0.375,-1.625 z m 14.28125,0.53125 0.40625,0.46875 -0.875,2.4375 -3.125,-2.09375 0,-0.0312 -0.0625,-0.0312 0.0937,0 0.0312,0 3.53125,-0.75 z m -4.90625,1.03125 0.78125,0.46875 -3.6875,5.09375 c -2.46588,-1.78804 -3.80345,-2.99479 -4.75,-3.96875 l 7.65625,-1.59375 z m 0.8125,0.46875 3.34375,2.09375 -2.09375,5.71875 c 0.1527,0.0563 -4.68991,-2.53934 -4.9375,-2.71875 l 3.6875,-5.09375 z m -9.46875,2.5 c 0.003,0.78671 0.0622,0.70729 -0.0312,1.09375 -0.52237,1.32021 0.0658,-1.69144 0.0312,-1.09375 z m 87.90625,30.90625 c 0.004,-0.0809 0.66488,0.42728 0.59375,0.34375 0.0564,0.068 0.11553,0.11318 0.3125,0.34375 0.0985,0.11529 0.20828,0.26296 0.59375,0.6875 -0.3774,-0.36523 -1.50185,-1.33903 -1.5,-1.375 z m 322.34375,18.40625 c 0.19725,-0.005 0.1846,0.004 0.375,0 l 2.03125,4.3125 c -2.0182,-0.0699 -2.92196,-0.18386 -3.0625,-0.3125 l 0.65625,-4 z"
         style="font-size:250px;font-style:normal;font-variant:normal;font-weight:bold;font-stretch:normal;text-align:center;line-height:80.00000119000000609%;letter-spacing:0px;word-spacing:0px;writing-mode:lr-tb;text-anchor:middle;fill:#edd400;fill-opacity:1;stroke:none;stroke-width:10;stroke-miterlimit:4;font-family:OliJo;-inkscape-font-specification:OliJo Bold"
         inkscape:connector-curvature="0" />
      <path
         id="path3293"
         d="m 154.90126,612.60038 c -4.88484,-0.0595 -9.64048,0.0686 -14.3125,0.5 -14.47764,1.33758 -27.8532,5.19178 -39.71876,11.65625 -0.0209,0.0103 -0.0417,0.0207 -0.0625,0.0312 -11.578915,6.39397 -21.432685,14.97718 -29.249995,25.4375 -7.84149,10.49297 -13.40874,22.75148 -16.78125,36.375 -0.006,0.0226 -0.0257,0.0399 -0.0312,0.0625 -3.4,13.54709 -4.37567,28.01969 -2.96875,43.25 1.40803,15.24246 4.9698,29.0667 10.84375,41.25 5.87434,12.18428 14.20332,22.71399 24.65625,31.25 0.034,0.0282 0.0597,0.0656 0.0937,0.0937 6.86565,5.68594 14.466545,10.02567 22.562495,12.90625 l -8.0625,1.4375 c -2.993492,0.54172 -5.745792,2.31137 -7.481,4.81007 -1.735208,2.4987 -2.432019,5.69577 -1.893995,8.68993 l 31.531255,175.68762 c 0.54172,2.9935 2.31137,5.7458 4.81007,7.481 2.4987,1.7352 5.69577,2.432 8.68993,1.894 l 49.21875,-8.8438 c 2.99349,-0.5417 5.74579,-2.3114 7.481,-4.8101 1.73521,-2.49867 2.43202,-5.69574 1.894,-8.6899 l -10.375,-57.71872 c 11.07709,-2.03786 20.68376,-4.68032 28.84375,-8.25 3.75466,-1.64247 7.27228,-3.62145 10.59375,-5.8125 -0.15133,0.2633 -0.32134,0.51522 -0.46875,0.78125 -3.68632,6.65297 -6.28273,13.91858 -7.71875,21.625 -1.33731,7.17672 -1.39187,14.39923 -0.15625,21.40625 1.19403,6.77135 3.36682,13.14422 6.59375,18.90625 0.051,0.084 0.10311,0.16733 0.15625,0.25 3.43634,5.80353 7.90211,10.85867 13.25,14.90627 0.1334,0.0966 0.26886,0.19036 0.40625,0.2812 5.74816,3.9804 12.36508,6.6567 19.40625,7.9688 5.12977,0.9559 10.23336,1.136 15.1875,0.4687 0.0514,-0.01 0.10491,0.01 0.15625,0 l 0,-0.031 c 2.57867,-0.3277 5.34049,-0.8532 8.25,-1.5625 1.72901,2.3775 4.39099,4.0569 7.28125,4.5938 l 44.75,8.3437 c 2.99442,0.5574 6.19996,-0.1219 8.71089,-1.846 2.51093,-1.7241 4.29628,-4.4717 4.85161,-7.4665 l 13.78125,-74.06247 5.03125,50.875 c 0.30497,3.02619 1.85252,5.9084 4.20652,7.8344 2.354,1.92601 5.48558,2.87217 8.51223,2.57187 l 48.25,-4.7813 c 3.02618,-0.30498 5.90838,-1.85252 7.83438,-4.20651 1.926,-2.354 2.87217,-5.48556 2.57187,-8.51221 l -9.8125,-99.25 c 1.60544,0.097 3.24894,0.23123 5,0.59375 0.21749,0.0479 0.43636,0.0896 0.65625,0.125 1.67983,0.24758 3.21485,0.70607 4.65625,1.34375 l 0.0625,0.0312 18.0625,8.21875 c 3.20691,1.44349 7.0751,1.32484 10.1875,-0.3125 l -10.375,65.0625 c -2.05033,12.87611 0.0722,25.47079 7.1875,35.28125 0.0308,0.0523 0.0621,0.10441 0.0937,0.15625 7.23995,9.69997 18.74,15.24417 31.8125,16.99997 0.031,0 0.0628,0 0.0937,0 0.087,0.011 0.1629,0.051 0.25,0.062 l 0,-0.031 c 2.1416,0.3325 4.22858,0.5991 6.28125,0.7188 1.77254,0.1033 3.5006,0.086 5.21875,0.062 0.33961,0 0.69298,0.039 1.03125,0.031 l 0,-0.031 c 2.13338,0.1028 4.32649,0.1586 6.71875,0.031 2.50062,-0.1332 5.53329,-0.3474 9.1875,-0.625 0.89155,-0.075 1.77433,-0.254 2.625,-0.5313 l 8.28125,-0.8437 0,-0.031 c 1.76195,-0.077 3.31807,-0.2446 5.34375,-0.5313 1.11472,-0.1577 1.95235,-0.2673 2.5,-0.3437 0.27382,-0.038 0.45962,-0.075 0.59375,-0.094 0.13413,-0.019 0.21875,0 0.21875,0 4.89087,-0.6834 9.09798,-4.8106 9.875,-9.6875 l 3.71885,-23.21877 c 0.52069,-3.2322 -0.40325,-6.66994 -2.47415,-9.20561 -2.07089,-2.53566 -5.25479,-4.12769 -8.52585,-4.26314 l -4.53125,-0.1875 c -0.18746,-0.005 -0.37504,-0.005 -0.5625,0 -1.45331,0.0105 -2.34467,0.025 -3.28125,0.0312 -0.35876,-0.0796 -0.64106,-0.13994 -1.34375,-0.34375 -0.31913,-0.0972 -0.64245,-0.18061 -0.96875,-0.25 -2.99494,-0.6005 -4.90124,-1.11413 -6.71875,-1.59375 0.11882,-1.27176 0.12763,-2.11671 0.4375,-4.0625 10e-6,-0.0104 10e-6,-0.0208 0,-0.0312 l 9.25,-58.125 18.875,3 c 3.00213,0.47915 6.18282,-0.27856 8.64647,-2.05979 2.46365,-1.78124 4.1801,-4.56417 4.66603,-7.56521 l 1.625,-10.25 31.3125,66.71875 c -0.10071,0.58776 -0.28417,1.45034 -0.71875,2.875 -0.11139,0.35974 -0.20528,0.7249 -0.28125,1.09375 -0.28082,1.38656 -0.60202,2.22591 -0.78125,2.5625 -1.32342,2.48522 -2.56359,4.11393 -3.3125,4.875 -0.1282,0.13242 -0.25324,0.26789 -0.375,0.40625 -0.26118,0.29175 -1.68211,1.45428 -4.28125,2.6875 -0.91754,0.37211 -2.07637,0.63611 -3.875,0.625 -2.7676,-0.0171 -5.297,-0.18999 -7.625,-0.5 -2.4024,-0.31996 -4.28128,-0.73416 -5.5625,-1.125 -0.17581,-0.0563 -0.35296,-0.10839 -0.53125,-0.15625 -1.91853,-0.49006 -2.9375,-0.71875 -2.9375,-0.71875 -3.5449,-0.87128 -7.48319,0.0502 -10.27354,2.4038 -2.79034,2.35359 -4.36261,6.08015 -4.10146,9.7212 l 2.03125,28.18747 11.59375,-0.8437 11.40625,-2.25 c -7.06092,9.1718 -5.80874,7.1659 -11.34375,13.9062 0.47751,0.028 1.20308,0.059 2.1875,0.125 2.40072,0.2199 4.94676,0.4922 7,0.5628 0.1881,0.014 0.3744,0.018 0.5625,0.031 2.71586,0.1971 5.42129,0.3156 8.125,0.375 0.18726,0 0.37536,0.028 0.5625,0.031 l 0,-0.031 c 2.97015,0.186 5.53732,0.2618 8.09375,0.031 l 0,0.031 c 0.0755,0 0.1434,-0.026 0.21875,-0.031 0.0317,0 0.0621,0 0.0937,0 14.2611,-1.0865 26.82659,-5.86 35.65625,-15.0625 0.0103,-0.011 0.021,-0.02 0.0312,-0.031 0.0202,-0.021 0.0423,-0.042 0.0625,-0.062 8.68054,-8.94533 14.34261,-21.25435 18.125,-36.37502 10e-6,-0.0104 10e-6,-0.0208 0,-0.0312 l 41.46885,-167.375 c 0.87962,-3.58957 -0.0817,-7.58008 -2.49936,-10.37535 -2.4177,-2.79526 -6.22803,-4.32157 -9.90689,-3.9684 l -31.09375,3.0625 c 0.5732,-0.21388 1.14735,-0.40237 1.71875,-0.625 0.008,-0.003 0.0231,0.003 0.0312,0 5.69416,-2.1959 12.14282,-5.2897 19.65625,-9.28125 l 0.0312,0 13.40625,-7.15625 0.21875,-0.0937 7.78125,-3.9375 c 2.59068,-1.30736 4.65722,-3.62054 5.66545,-6.34162 1.00824,-2.72108 0.94788,-5.82233 -0.16545,-8.50213 l -9.46875,-22.65625 c -1.19831,-2.86764 -3.59589,-5.21163 -6.48988,-6.34482 -2.89399,-1.13319 -6.24573,-1.04044 -9.07262,0.25107 l -3.625,1.65625 -0.0625,0.0312 c -4.89837,2.20528 -8.83937,3.84194 -11.46875,4.78125 -0.0208,-6e-5 -0.0417,-6e-5 -0.0625,0 -2.59978,0.94407 -5.21592,1.74996 -7.84375,2.40625 -0.0316,0.008 -0.0621,0.0234 -0.0937,0.0312 -9.65743,2.06149 -16.29682,1.13845 -21.46875,-1.625 -2.89346,-1.54597 -5.77269,-4.28593 -8.53125,-8.21875 l 56.9063,-20.87495 c 2.6546,-0.97588 4.92599,-2.95641 6.25429,-5.45338 1.32829,-2.49697 1.70126,-5.48739 1.02696,-8.23412 l -2.09375,-8.5 c 10e-6,-0.0104 10e-6,-0.0208 0,-0.0312 -1.66169,-6.68981 -3.4411,-12.34092 -5.40625,-17.1875 l 0.0312,0 c -0.0567,-0.15515 -0.13035,-0.28339 -0.1875,-0.4375 -1.76655,-4.76315 -3.77746,-9.03955 -6.25,-12.84375 -0.0326,-0.0515 -0.0609,-0.10491 -0.0937,-0.15625 -2.54689,-3.9832 -5.61886,-7.53437 -9.21875,-10.46875 -2.93346,-2.39067 -6.15217,-4.70386 -9.65625,-6.96875 -0.0588,-0.038 -0.0973,-0.087 -0.15625,-0.125 l 0,0.0312 c -7.37974,-4.91735 -15.76835,-7.97479 -24.625,-8.96875 -0.0827,-0.0107 -0.16721,-0.0209 -0.25,-0.0312 -2.1135,-0.26537 -4.25971,-0.43515 -6.40625,-0.5 -6.70721,-0.20264 -13.47738,0.60701 -20.21875,2.28125 -11.41305,2.83484 -21.62416,7.62671 -30.21875,14.5 -0.0313,0.0207 -0.0626,0.0415 -0.0937,0.0625 -8.27933,6.72696 -14.92395,15.10371 -19.75,24.71875 -0.0212,0.0519 -0.042,0.10402 -0.0625,0.15625 -2.58306,5.32982 -4.4878,11.01306 -5.875,16.96875 -0.0104,-0.0104 -0.0208,-0.0208 -0.0312,-0.0312 -4.86104,-4.43793 -10.54436,-7.84934 -16.71875,-10.03125 -0.0308,-0.0117 -0.063,-0.0196 -0.0937,-0.0312 -0.0842,-0.0296 -0.16565,-0.0647 -0.25,-0.0937 l 0,0.0312 c -6.10471,-2.26747 -12.61124,-3.40607 -19.28125,-3.40625 -12.81479,1.6e-4 -26.77177,4.03035 -42.28125,11.0625 -3.18352,-2.68999 -6.48968,-5.07279 -10.03125,-6.84375 -6.09912,-3.04928 -12.94068,-4.38097 -19.9375,-4.21875 -0.021,4.9e-4 -0.0415,-5.1e-4 -0.0625,0 -0.0947,0.002 -0.18655,-0.003 -0.28125,0 l 0,0.0312 c -6.42949,0.0402 -12.92183,1.17199 -19.34375,3.3125 -1.94311,0.64775 -4.18956,1.58278 -6.34375,2.4375 -1.77117,-5.05402 -7.39052,-8.445 -12.6875,-7.65625 l -47.21875,7.0625 c -1.79978,-5.61965 -4.91276,-10.73716 -9.0625,-14.96875 -0.53878,-0.81579 -1.18094,-1.56322 -1.90625,-2.21875 -9.67122,-8.70185 -22.57227,-13.2305 -37.09375,-14.1875 -4.80921,-0.31671 -10.04967,-0.29003 -15.90625,0.0312 -0.0209,0.0103 -0.0417,0.0207 -0.0625,0.0312 -5.82511,0.34166 -11.63768,1.00386 -17.40625,2.09375 -0.0731,0.0201 -0.14604,0.0409 -0.21875,0.0625 -2.84708,0.59254 -6.15868,1.26123 -9.84375,1.96875 -0.13949,0.0268 -0.23433,0.0355 -0.375,0.0625 -3.10315,0.50065 -6.58227,1.20887 -10.125,1.96875 -1.28163,-0.0123 -2.56506,0.18927 -3.78125,0.59375 l -9.4689,3.15625 c -4.55825,1.52577 -7.90019,6.13081 -7.9375,10.9375 l -0.15625,21.28125 c -0.0339,3.64334 1.7601,7.25824 4.68216,9.43462 2.92205,2.17639 6.8993,2.85998 10.38034,1.78413 l 5.375,-1.65625 -0.0625,-0.15625 c 0.005,0.002 0.15443,0.12553 0.15625,0.125 0.1814,-0.0531 0.42972,-0.14604 0.78125,-0.25 0.70306,-0.20792 1.74145,-0.52009 3.125,-0.9375 2.49355,-0.7521 5.5458,-1.58419 9.125,-2.46875 0.10445,-0.0194 0.20863,-0.0402 0.3125,-0.0625 3.48048,-0.9592 7.2102,-1.78637 11.21875,-2.4375 3.55774,-0.57772 6.5476,-0.72292 8.90625,-0.59375 1.71707,0.19865 2.56301,0.51781 3.09375,0.8125 0.0376,0.32822 0.18968,1.10076 0.0625,3.03125 l -0.15625,2.46875 -9.34375,0.3125 c -0.42895,0.018 -0.85691,0.0597 -1.28125,0.125 -8.95086,0.27521 -17.3128,1.71599 -24.90625,4.71875 -7.76781,3.07188 -14.67469,7.37245 -20.34375,12.9375 -4.11671,4.04128 -7.5348,8.69471 -10.25,13.75 l -0.3125,-3.25 c -0.2748,-3.03649 -1.79988,-5.94088 -4.14353,-7.89103 -2.34366,-1.95015 -5.47686,-2.92191 -8.51272,-2.64022 l -49.03125,4.53125 c -3.03649,0.2748 -5.94088,1.79988 -7.89103,4.14353 -1.95015,2.34366 -2.92191,5.47686 -2.64022,8.51272 l 4.46875,48.1875 c -1.21241,-0.41586 -2.40273,-0.91169 -3.5625,-1.625 -0.24492,-0.14453 -0.49514,-0.28006 -0.75,-0.40625 -3.08812,-2.37018 -6.57879,-6.67615 -9.84375,-13.90625 -3.46769,-7.67871 -5.97042,-18.13771 -7.03125,-31.3125 6e-5,-0.0208 6e-5,-0.0417 0,-0.0625 -1.84787,-21.72049 0.67865,-36.57967 4.90625,-44.0625 0.0105,-0.0208 0.0209,-0.0416 0.0312,-0.0625 4.29998,-7.74544 10.50831,-11.80472 23.03125,-13.125 2.94159,-0.27161 6.9484,-0.36355 11.8125,-0.1875 0.11457,0.002 0.22918,0.002 0.34375,0 4.87509,0.0214 9.54935,0.25041 13.96875,0.625 4.64788,0.39429 8.49746,0.77356 11.53125,1.125 0.0417,2.2e-4 0.0833,2.2e-4 0.125,0 1.69449,0.17915 2.96483,0.31761 3.8125,0.40625 0.42383,0.0443 0.72408,0.0716 0.9375,0.0937 0.10671,0.0111 0.19476,0.0255 0.25,0.0312 0.0552,0.006 0.0937,0 0.0937,0 3.42106,0.34922 6.97239,-0.91435 9.40402,-3.34598 2.43163,-2.43163 3.6952,-5.98296 3.34598,-9.40402 l -2.53125,-24.875 c -0.5408,-5.1983 -4.99803,-9.7239 -10.1875,-10.34375 l -8.375,-1 c -0.62196,-0.0713 -1.24968,-0.0922 -1.875,-0.0625 -0.61466,-0.0853 -1.18669,-0.24116 -1.84375,-0.3125 -0.0822,-0.0104 -0.16789,-0.0209 -0.25,-0.0312 -1.00348,-0.12672 -2.03292,-0.22191 -3.0625,-0.3125 -0.18696,-0.0254 -0.37453,-0.0462 -0.5625,-0.0625 -0.45745,-0.056 -0.63891,-0.0422 -1.0625,-0.0937 -2.65508,-0.3233 -4.72445,-0.52486 -6.65625,-0.625 l 0,-0.0312 c -1.37461,-0.21158 -2.42089,-0.3697 -3.0625,-0.46875 -0.29035,-0.0423 -0.58229,-0.0735 -0.875,-0.0937 -5.15581,-0.40598 -10.18133,-0.52752 -15.09375,-0.4375 -0.13211,0.002 -0.27432,-0.003 -0.40625,0 z m 451.25,49.4375 c 0.35058,0.57822 0.4878,0.67373 1.0625,2.0625 0.41795,1.01015 0.97873,3.22645 1.46875,4.75 l -2.34375,0.9375 c -0.41238,-4.21924 -0.36651,-6.96585 -0.28125,-7.25 0.0214,-0.0623 0.0422,-0.12482 0.0625,-0.1875 0.0802,-0.2835 -0.002,-0.13302 0.0312,-0.3125 z m -196.71875,53.25 c 2.05027,0.3076 1.5011,0.13371 2.75,0.40625 0.0959,0.26869 0.25388,0.6302 0.375,1.4375 0.3566,2.37783 0.62492,6.45659 0.625,11.78125 l 0,87.5 c 0.002,2.02938 0.54645,4.05579 1.5625,5.8125 -1.96588,-0.91616 -4.19137,-1.26697 -6.34375,-1 0.68057,-1.50649 1.03477,-3.15942 1.03125,-4.8125 z m 75.5,0.15625 c 1.3282,0.20286 1.3391,0.11599 2.21875,0.34375 0.0901,0.24069 0.27213,0.69991 0.40625,1.59375 0.0348,0.23035 0.0765,0.45965 0.125,0.6875 0.39559,1.87956 0.74985,5.49482 0.75,10.34375 l 0,88 c -10e-4,3.95074 2.16722,7.83463 5.53125,9.90625 l -1.90625,2 -0.0937,0.0937 c -2.03273,1.48593 -1.54516,1.23892 -2.625,2.15625 -0.26054,0.22825 -0.51087,0.46816 -0.75,0.71875 0.23273,-0.23615 -0.59866,0.52953 -2.15625,1.4375 -0.15842,0.0901 -0.31473,0.18384 -0.46875,0.28125 -0.78003,0.50544 -1.22756,0.62505 -1.53125,0.6875 l -17.5,3.3125 c -0.0104,-10e-6 -0.0208,-10e-6 -0.0312,0 l -0.4375,-4.34375 c -0.15835,-1.62181 -0.66243,-3.20901 -1.46885,-4.625 l 8.3125,0 c 3.04312,-10e-4 6.06709,-1.25429 8.2189,-3.4061 2.15181,-2.15181 3.40501,-5.17578 3.4061,-8.2189 l 0,-100.96875 z m 75.25,41.5 c 5.0242,6.73024 10.82586,12.54622 17.40625,17.1875 0.0415,0.0315 0.0831,0.0628 0.125,0.0937 8.1425,5.55909 17.24845,9.26339 26.90625,10.96875 9.85621,1.74044 20.14674,1.17297 30.53125,-1.40625 2.55558,-0.63474 5.09303,-1.33732 7.625,-2.125 -2.22124,1.65809 -3.81624,4.13542 -4.40625,6.84375 l -10.46875,48.6563 c -1.17267,-2.52538 -2.20962,-4.80481 -3.46875,-7.46875 l 0.0312,0 c -2.99214,-6.69203 -5.86165,-12.8297 -8.625,-18.5 l 0.0312,0 c -2.56163,-5.72914 -4.78485,-10.46582 -6.71875,-14.40625 -0.0765,-0.171 -0.11453,-0.21174 -0.1875,-0.375 -0.74549,-1.668 -1.36513,-3.04121 -1.75,-3.90625 -0.21127,-0.47485 -0.36456,-0.82771 -0.46875,-1.0625 -0.0521,-0.1174 -0.0996,-0.22399 -0.125,-0.28125 -0.0254,-0.0573 -0.0312,-0.0937 -0.0312,-0.0937 -1.97264,-4.43315 -6.95307,-7.32629 -11.78125,-6.84375 l -34.625,3.4375 0,-30.71875 z m -337.25,28.59375 c 3.55404,3.9194 7.49904,7.44165 12.03125,10.09375 0.144,0.0865 0.28988,0.16984 0.4375,0.25 6.17478,3.27151 13.05035,5.12347 20.1875,5.59375 5.14343,0.33891 10.205,-0.0219 15.09375,-1.28125 0.0486,-0.012 0.10758,-0.0191 0.15625,-0.0312 l 0,-0.0312 c 2.56211,-0.64097 5.23498,-1.50455 8.03125,-2.5625 1.99691,2.16463 4.84261,3.52459 7.78125,3.71865 l 45.40625,2.96875 c 1.92426,0.11944 3.87689,-0.24939 5.625,-1.0625 l 0,13.21875 c 0.001,3.04312 1.25429,6.06709 3.4061,8.2189 2.15181,2.15181 5.17578,3.40501 8.2189,3.4061 l 31.65625,0 -21.53125,5.4375 c -2.67426,0.67652 -5.087,2.3399 -6.67042,4.59869 -1.58343,2.25879 -2.32432,5.09414 -2.04833,7.83881 l 1.21875,12.34375 c -8.11932,-7.06704 -18.44756,-11.75769 -30.3125,-13.96875 -4.67965,-0.87184 -9.91358,-1.4679 -15.8125,-1.84375 -0.0208,-6e-5 -0.0417,-6e-5 -0.0625,0 -2.94615,-0.17653 -5.84756,-0.26159 -8.75,-0.25 -2.89798,0.0116 -5.81673,0.11184 -8.75,0.3125 -0.0729,-6.9e-4 -0.14584,-6.9e-4 -0.21875,0 -2.96426,0.25783 -6.34542,0.54585 -10.0625,0.8125 -0.12709,0.009 -0.2158,0.0222 -0.34375,0.0312 -3.14238,0.12943 -6.7005,0.44461 -10.34375,0.78125 -1.25429,-0.17494 -2.53717,-0.14315 -3.78125,0.0937 l -9.78125,2 c -0.7399,0.16847 -1.46325,0.40958 -2.15625,0.71875 -9.4e-4,-0.003 -0.0303,0.003 -0.0312,0 -1.86683,-6.49407 -4.64383,-12.57042 -8.375,-18.0625 -0.0413,-0.063 -0.0835,-0.12463 -0.125,-0.1875 -4.88546,-7.40214 -11.3299,-13.56025 -19.03125,-18.03125 -0.0312,-0.0105 -0.0624,-0.0209 -0.0937,-0.0312 -4.14867,-2.35907 -8.48574,-4.2219 -12.9375,-5.53125 -1.04794,-0.3081 -2.17115,-0.47184 -3.25,-0.71875 l 8.0625,-3.03125 c 4.72747,-1.77208 7.95508,-6.90937 7.5,-11.9375 l -0.34375,-3.875 z m 324.4375,42.84375 7.6875,16.40625 -10.0625,-1.625 z m -376.09375,26.21875 c 1.24437,0.45913 1.55393,0.65956 1.9375,0.9375 1.08643,0.78778 3.88661,4.62584 5.46875,13.4375 0.01,0.0521 0.0204,0.10424 0.0312,0.15625 1.73247,8.85234 0.5781,13.7573 -0.5625,15.625 -0.004,0.006 0.004,0.025 0,0.0312 -0.31546,0.46686 -0.71325,0.91648 -1.21875,1.375 l -5.65625,-31.5625 z m 114.96875,31.375 c 3.6255,-0.15435 6.6308,0.0547 8.96875,0.46875 1.65157,0.39799 2.44864,0.80282 2.9375,1.15625 -0.002,0.32805 0.0414,1.10067 -0.3125,3 l -0.4375,2.4375 -9.3125,-0.78125 c -0.38458,-0.0296 -0.77063,-0.04 -1.15625,-0.0312 -0.0208,-6e-5 -0.0417,-6e-5 -0.0625,0 -8.94838,-0.79177 -17.43687,-0.33764 -25.34375,1.75 -6.04693,1.59668 -11.66739,3.95282 -16.75,7.0625 2.11243,-3.53803 3.88248,-7.24929 5.28125,-11.15625 1.74431,0.52571 3.61298,0.63373 5.40625,0.3125 l 5.53125,-1 -0.0625,-0.40625 c 0.0187,0.0167 0.30834,0.37575 0.3125,0.375 0.17297,-0.031 0.43304,-0.0941 0.78125,-0.15625 0.69642,-0.12431 1.76181,-0.31656 3.15625,-0.5625 2.51126,-0.44274 5.61107,-0.88296 9.3125,-1.34375 0.1043,-0.009 0.20848,-0.0194 0.3125,-0.0312 3.60056,-0.54596 7.41281,-0.92221 11.4375,-1.09375 z"
         style="font-size:250px;font-style:normal;font-variant:normal;font-weight:bold;font-stretch:normal;text-align:center;line-height:80.00000119%;letter-spacing:0px;word-spacing:0px;writing-mode:lr-tb;text-anchor:middle;fill:#4e9a06;fill-opacity:1;stroke:none;font-family:OliJo;-inkscape-font-specification:OliJo Bold"
         inkscape:connector-curvature="0"
         sodipodi:nodetypes="cccccccssccccsccsscsccsccssccccsccccccscccsccsccccccccccccccccccccccccccscccscccccccccccscccccccccsccccscccccccccccccccccccccscccccccccsccsccccccccccsccccccccccccccsccccccccccccccccccccccccccccccccccccsccccscccccccccccsccsccscccccccccccccccccccscccccccccccccccccccccccccccccccccccccccccccccccccccccsccccccsscccccccccsccccccccccsccccccccscccscccccsccccccccccccccccccccccccccccccccccccccccccccccccccccc" />
      <path
         id="path4105"
         d="m 155.21376,619.47538 c -4.83032,-0.0704 -9.48574,0.0832 -14,0.5 -13.66748,1.26273 -26.05929,4.86611 -37.03126,10.84375 -0.0104,-3e-5 -0.0208,-3e-5 -0.0312,0 -10.756915,5.94005 -19.817225,13.83638 -27.062495,23.53125 -7.25485,9.70798 -12.47781,21.08052 -15.65625,33.9375 -0.002,0.01 0.002,0.0214 0,0.0312 -3.19769,12.72729 -4.12643,26.40684 -2.78125,40.96875 1.34584,14.5692 4.72718,27.54962 10.1875,38.875 5.46188,11.32876 13.1121,21.03645 22.84375,28.96875 0.0114,0.009 0.0198,0.0218 0.0312,0.0312 7.90674,6.56181 16.651485,11.11737 26.093755,13.5 0.0311,0.0107 0.0624,0.0211 0.0937,0.0312 9.35097,2.1859 19.94327,2.65604 31.78125,1.5625 4.2746,-0.39487 8.44449,-0.96386 12.53125,-1.6875 4.24474,-0.73715 8.44182,-1.64792 12.625,-2.71875 0.009,-0.002 0.0219,0.002 0.0312,0 4.33279,-1.0828 8.80304,-2.33137 13.4375,-3.78125 0.042,-0.0202 0.0836,-0.0411 0.125,-0.0625 4.75504,-1.62324 9.81024,-3.42354 15.1875,-5.4375 l 9.71875,-3.65625 c 1.93295,-0.71998 3.2529,-2.82112 3.0625,-4.875 l -7.1875,-77.6875 c -0.2274,-2.47136 -2.68521,-4.51208 -5.15625,-4.28125 l -49.03125,4.53125 c -2.47136,0.2274 -4.51208,2.68521 -4.28125,5.15625 l 5.25,56.5625 c -2.8793,-0.0473 -5.45616,-0.18466 -7.34375,-0.46875 -2.65839,-0.59603 -5.14478,-1.58268 -7.5,-3.03125 -0.21935,-0.13295 -0.44953,-0.24804 -0.6875,-0.34375 -4.5265,-3.23594 -8.82222,-8.71733 -12.5625,-17 -3.90679,-8.65103 -6.51896,-19.85747 -7.625,-33.59375 3e-5,-0.0104 3e-5,-0.0208 0,-0.0312 -1.90824,-22.43017 0.39286,-38.49384 5.78125,-48.03125 3e-5,-0.0104 3e-5,-0.0208 0,-0.0312 5.40697,-9.73942 14.29548,-15.18052 28.4375,-16.65625 0.0166,-0.002 0.0459,0.002 0.0625,0 3.35423,-0.3066 7.58308,-0.40123 12.625,-0.21875 0.0415,0.011 0.0832,0.0214 0.125,0.0312 5.06215,0.0222 9.90025,0.23512 14.5,0.625 4.69265,0.39809 8.64023,0.79238 11.78125,1.15625 0.0104,3e-5 0.0208,3e-5 0.0312,0 1.69194,0.17888 2.96756,0.28664 3.8125,0.375 0.42247,0.0442 0.7258,0.103 0.9375,0.125 0.10585,0.011 0.19632,-0.006 0.25,0 0.0537,0.006 0.0625,0.0312 0.0625,0.0312 2.79284,0.30093 5.5029,-2.39291 5.21875,-5.1875 l -2.53125,-24.875 c -0.21812,-2.12139 -2.03835,-3.969 -4.15625,-4.21875 l -8.375,-1 c -0.40399,-0.0524 -0.81476,-0.0524 -1.21875,0 -0.83051,-0.13556 -1.56928,-0.2685 -2.5625,-0.375 -0.0374,-0.004 -0.0561,-0.0273 -0.0937,-0.0312 l 0,0.0312 c -1.12761,-0.14282 -2.15,-0.22839 -3.1875,-0.3125 -0.0415,-0.011 -0.0832,-0.0214 -0.125,-0.0312 -0.14475,-0.0276 -0.2908,-0.0485 -0.4375,-0.0625 -3.64897,-0.44701 -6.00573,-0.71222 -7.9375,-0.78125 -0.008,-2.7e-4 -0.0237,2.6e-4 -0.0312,0 -1.34483,-0.20694 -2.37405,-0.3673 -3.03125,-0.46875 -0.11414,-0.0146 -0.22881,-0.025 -0.3437,-0.0312 -5.0012,-0.39381 -9.88058,-0.50075 -14.65625,-0.40625 z m 464.25,0.34375 c -6.01993,-0.18187 -12.17799,0.52346 -18.375,2.0625 -10.59242,2.63101 -19.84742,7.02383 -27.59375,13.21875 -0.0104,-3e-5 -0.0208,-3e-5 -0.0312,0 -7.52207,6.11169 -13.48939,13.66895 -17.90625,22.46875 -0.0105,0.0208 -0.0209,0.0416 -0.0312,0.0625 -4.26299,8.79615 -6.76123,18.6691 -7.5,29.5 -0.0513,0.75288 -0.0289,1.52393 -0.0625,2.28125 -2.19007,-4.76875 -5.26841,-9.06968 -9.1875,-12.71875 -0.0103,-0.0104 -0.0207,-0.0208 -0.0312,-0.0312 -4.24683,-3.87719 -9.12912,-6.7799 -14.5,-8.65625 l 0,-0.0312 c -0.0494,-0.0187 -0.10683,-0.0127 -0.15625,-0.0312 -5.34768,-2.00692 -11.06054,-3.03109 -17.03125,-3.03125 -12.39867,1.5e-4 -26.87813,4.34461 -43.59375,12.375 -3.81688,-3.71032 -7.70748,-6.83792 -11.78125,-8.875 -5.04994,-2.52474 -10.7761,-3.63114 -16.875,-3.46875 l 0,-0.0312 c -5.72673,1.7e-4 -11.57813,1.02616 -17.5,3 -4.14361,1.3813 -9.21837,3.56131 -14.75,6.09375 l 0,-6.34375 c 0.002,-2.71577 -2.75172,-5.08996 -5.4375,-4.6875 l -48.5,7.25 c -2.23151,0.32048 -4.06245,2.43309 -4.0625,4.6875 l 0,141.5 c -0.008,2.48914 2.26086,4.75753 4.75,4.75 l 48.5,0 c 2.48914,0.008 4.75753,-2.26086 4.75,-4.75 l 0,-108.8125 c 0.49028,-0.028 0.98394,-0.0734 2.03125,0.0312 0.0312,3.1e-4 0.0625,3.1e-4 0.0937,0 3.99156,0.31944 7.09894,0.79525 9.15625,1.34375 0.11335,0.0355 0.22805,0.0668 0.34375,0.0937 1.77683,0.33324 2.46057,0.84042 3.03125,1.625 0.0976,0.13026 0.20198,0.25548 0.3125,0.375 0.62506,0.6946 1.42954,2.27043 1.84375,5.03125 0.44155,2.94428 0.68741,7.28516 0.6875,12.8125 l 0,87.5 c -0.008,2.48914 2.26086,4.75753 4.75,4.75 l 48.5,0 c 2.48914,0.008 4.75753,-2.26086 4.75,-4.75 l 0,-103 c -8e-5,-2.10431 -0.31013,-3.90984 -0.46875,-5.84375 0.3698,-0.003 0.59737,-0.0346 1.125,0.0312 0.0727,0.0121 0.1456,0.0225 0.21875,0.0312 3.9965,0.31984 7.18453,0.80408 9.46875,1.375 0.0208,1.4e-4 0.0417,1.4e-4 0.0625,0 2.07261,0.48778 3.1844,1.23595 3.9375,2.15625 0.0406,0.053 0.0822,0.10505 0.125,0.15625 0.62505,0.69462 1.42947,2.27038 1.84375,5.03125 0.018,0.0944 0.0388,0.18816 0.0625,0.28125 0.55618,2.64258 0.87484,6.64523 0.875,11.78125 l 0,88 c -0.008,2.48914 2.26086,4.75753 4.75,4.75 l 8.5,0 -12.09375,12.5 c -0.11768,0.0679 -0.23244,0.14095 -0.34385,0.21875 -1.06351,0.77198 -1.16156,0.99101 -2.3125,1.96875 -0.10826,0.0891 -0.21256,0.18294 -0.3125,0.28125 -0.50183,0.50921 -1.74643,1.45438 -3.59375,2.53125 -0.0635,0.0402 -0.126,0.0819 -0.1875,0.125 -1.43683,0.93103 -2.74851,1.44228 -4,1.6875 -0.008,0.002 -0.0229,-0.002 -0.0312,0 l -17.4688,3.3125 c -1.9066,0.35354 -3.50537,1.99163 -3.8125,3.90625 l -2.09375,13.0625 -2.6875,-27.40625 c -0.1823,-1.8764 -1.59427,-3.57334 -3.40625,-4.09375 l -2.59375,-0.75 0,0.0312 c -2.69118,-0.84049 -5.33886,-1.35563 -7.90625,-1.5 -0.0203,-10e-4 -0.0423,10e-4 -0.0625,0 -2.18451,-0.14225 -4.46765,-0.12714 -6.8125,0.0937 -0.0645,0.006 -0.12287,-0.006 -0.1875,0 l 0,0.0312 c -4.87897,0.3206 -9.3301,1.31003 -13.25,3.0625 -0.0209,0.0103 -0.0417,0.0207 -0.0625,0.0312 -3.232,1.50344 -6.65045,3.94332 -10.3125,6.96875 l -0.5,-4.9375 c -0.26713,-2.70232 -3.24256,-4.79145 -5.875,-4.125 l -47.53125,12 c -2.18154,0.54609 -3.785,2.82468 -3.5625,5.0625 l 13.9375,140.8125 c 0.24225,2.47195 2.7162,4.4988 5.1875,4.25 l 48.25,-4.78125 c 2.47195,-0.24225 4.4988,-2.7162 4.25,-5.1875 l -10.5625,-106.71875 c 0.094,-0.008 0.18784,-0.018 0.28125,-0.0312 1.95511,-0.19348 4.06581,-0.29685 6.375,-0.21875 0.0104,3e-5 0.0208,3e-5 0.0312,0 2.37681,0.0611 4.79051,0.35935 7.28125,0.875 0.0931,0.0237 0.18693,0.0445 0.2813,0.0625 2.29552,0.33832 4.45948,0.9658 6.5,1.875 0.009,0.004 0.0222,-0.004 0.0312,0 l 18.09375,8.25 c 1.5079,0.6923 3.38046,0.5136 4.7302,-0.45141 1.34975,-0.965 2.12459,-2.67906 1.9573,-4.32984 l -0.34375,-3.53125 c 0.26363,0.0968 0.5359,0.17012 0.8125,0.21875 l 9.1563,1.46875 -12.5625,78.75 c -1.84479,11.58532 0.0361,21.97639 5.96875,30.15625 0.0206,0.021 0.0415,0.0419 0.0625,0.0625 5.99787,8.03592 15.50075,12.75122 27.375,14.31252 l 0,0.031 c 0.0544,0.01 0.10198,-0.01 0.15625,0 2.03306,0.3196 3.95718,0.5499 5.78125,0.6562 1.72314,0.1005 3.48625,0.096 5.28125,0.062 0.13806,0 0.26777,0 0.40625,0 1.9785,0.1161 4.11291,0.1271 6.5,0 2.43081,-0.1294 5.41654,-0.3191 9.03125,-0.5937 0.54948,-0.041 1.09154,-0.1795 1.59375,-0.4063 l 9.15625,-0.9375 0,-0.031 c 1.42138,-0.04 2.93599,-0.199 5.0625,-0.5 1.11917,-0.1584 1.94777,-0.2667 2.5,-0.3437 0.27611,-0.038 0.4885,-0.075 0.625,-0.094 0.1365,-0.019 0.21875,-0.031 0.21875,-0.031 1.9931,-0.27358 3.71085,-1.95138 4.03125,-3.9375 l 3.71875,-23.21877 c 0.41467,-2.63426 -1.83519,-5.36846 -4.5,-5.46875 l -4.53125,-0.1875 c -0.0727,-0.0121 -0.1456,-0.0225 -0.21875,-0.0312 -1.80294,0.0131 -3.05752,0.0243 -4.0625,0.0312 -0.66001,-0.11883 -1.48943,-0.31377 -2.5625,-0.625 -0.12366,-0.0363 -0.24879,-0.0676 -0.375,-0.0937 -3.88622,-0.7792 -6.92484,-1.48802 -9.09375,-2.125 -1.6081,-0.63927 -2.59568,-1.2976 -3.125,-1.8125 -0.15175,-0.19027 -0.3223,-0.5147 -0.34375,-1.5625 4e-5,-0.007 -4e-5,-0.0244 0,-0.0312 -2.8e-4,-0.0205 1.5e-4,-0.0102 0,-0.0312 0.0133,-1.75742 0.29073,-4.46486 0.84375,-7.9375 l 10.3125,-64.9375 25.6875,4.09375 c 2.45504,0.39889 5.05047,-1.48057 5.4375,-3.9375 l 4.5625,-28.65625 c 0.39889,-2.45504 -1.48057,-5.05047 -3.9375,-5.4375 l -25.6875,-4.09375 3.90625,-24.4375 c 0.17664,-1.12852 -0.0727,-2.31856 -0.6875,-3.28125 l 8.21875,0 c 0.93973,7.6e-4 1.87775,-0.28617 2.65625,-0.8125 l 57.90625,123.4375 c -0.0465,0.18627 -0.0636,0.26929 -0.125,0.5 -0.057,0.21545 -0.0988,0.43492 -0.125,0.65625 -0.13126,1.08851 -0.50946,2.6783 -1.09375,4.59375 -0.0486,0.14372 -0.0904,0.28978 -0.125,0.4375 -0.38109,1.88167 -0.89351,3.35718 -1.46875,4.4375 -1.54351,2.89852 -3.08137,5.05885 -4.46875,6.46875 -0.0533,0.0509 -0.10539,0.10296 -0.15625,0.15625 -1.18226,1.32063 -3.41458,2.90836 -6.71875,4.4375 -1.87133,0.77029 -4.00939,1.17221 -6.59375,1.15625 -3.0145,-0.0187 -5.8417,-0.17725 -8.5,-0.53125 -2.68862,-0.35808 -4.93731,-0.8411 -6.6875,-1.375 -0.0621,-0.0221 -0.12457,-0.043 -0.1875,-0.0625 -1.90168,-0.48576 -2.90625,-0.71875 -2.90625,-0.71875 -1.44222,-0.35104 -3.04258,0.026 -4.17638,0.98399 -1.1338,0.95797 -1.77273,2.47293 -1.66737,3.95351 l 2.03125,28.18747 4.71875,-0.3437 c 12.47446,-2.69072 -8.11444,4.9256 9.78125,5.4375 0.004,0.077 0.16827,0.024 0.21875,0.031 2.88676,0.2155 5.7541,0.3846 8.625,0.4375 l 0,-0.031 c 2.99489,0.193 5.41255,0.2569 7.46875,0.062 0.0344,0 0.0908,0 0.125,0 0.002,-10e-5 -0.002,-0.031 0,-0.031 13.18618,-0.9748 23.94137,-5.2001 31.40625,-13.00002 0.0157,-0.0164 0.0469,-0.0148 0.0625,-0.0312 l -0.0312,-0.0312 c 7.49712,-7.71029 12.83658,-18.85478 16.4375,-33.25 3e-5,-0.0104 3e-5,-0.0208 0,-0.0312 l 41.46875,-167.375 c 0.35998,-1.46392 -0.0323,-3.09221 -1.01936,-4.23164 -0.9871,-1.13943 -2.54285,-1.75975 -4.04314,-1.61211 l -32.09375,3.15625 c -1.9778,0.199 -3.73943,1.77517 -4.1563,3.71875 l -14.8125,68.84375 c -1.15181,-2.48782 -2.06859,-4.53051 -3.5,-7.53125 -0.0123,-0.0275 -0.0189,-0.0662 -0.0312,-0.0937 -2.57837,-5.76446 -5.47018,-11.98334 -8.625,-18.65625 -0.0145,-0.0324 -0.0168,-0.0614 -0.0312,-0.0937 -2.9898,-6.68485 -5.82949,-12.80573 -8.5625,-18.40625 -0.0226,-0.0506 -0.0399,-0.0746 -0.0625,-0.125 -2.54549,-5.68905 -4.76609,-10.4368 -6.65625,-14.28125 -0.0307,-0.0686 -0.0324,-0.0889 -0.0625,-0.15625 -0.81356,-1.81983 -1.43459,-3.23662 -1.84375,-4.15625 -0.21215,-0.47682 -0.36362,-0.82559 -0.46875,-1.0625 -0.0526,-0.11846 -0.099,-0.22266 -0.125,-0.28125 -0.026,-0.0586 -0.0312,-0.0625 -0.0312,-0.0625 -0.79676,-1.81976 -2.83595,-3.0115 -4.8125,-2.8125 l -42.1875,4.15625 0,-67.25 c 2.43973,7.65287 5.59006,14.62946 9.53125,20.84375 0.0102,0.0209 0.0206,0.0417 0.0312,0.0625 5.24722,7.96134 11.50338,14.5579 18.6875,19.625 0.0207,0.0105 0.0415,0.0209 0.0624,0.0312 7.36108,5.02559 15.49482,8.33455 24.21875,9.875 8.80468,1.55476 18.05796,1.07144 27.65625,-1.3125 5.18984,-1.28901 10.30002,-2.90989 15.34375,-4.875 0.008,-0.003 0.0232,0.003 0.0312,0 5.29188,-2.04089 11.56331,-5.01914 18.9375,-8.9375 l 13.5625,-7.21875 0.0937,-0.0312 7.90625,-4 c 2.10726,-1.061 3.14746,-3.84932 2.25,-6.03125 l -9.46875,-22.65625 c -0.96869,-2.34513 -4.0356,-3.55376 -6.34375,-2.5 l -3.65625,1.6875 -0.0312,0 c -5.01632,2.25942 -9.09104,3.94965 -12.03125,5 -0.0104,0.0104 -0.0208,0.0208 -0.0312,0.0312 -2.79558,1.01517 -5.61616,1.87943 -8.46875,2.59375 -0.0511,0.0128 -0.10515,0.0186 -0.15625,0.0312 -10.88055,2.35589 -19.46693,1.4411 -26.375,-2.25 -5.87475,-3.13886 -10.99047,-9.08665 -15.28125,-17.9375 l 64.53125,-23.6875 c 2.15867,-0.79315 3.51136,-3.32766 2.96875,-5.5625 l -2.09375,-8.5 c 3e-5,-0.0104 3e-5,-0.0208 0,-0.0312 -1.62777,-6.55326 -3.35953,-11.99676 -5.1875,-16.46875 -0.0238,-0.0652 -0.0386,-0.12252 -0.0625,-0.1875 -1.67237,-4.54622 -3.52859,-8.4745 -5.6875,-11.78125 -0.0126,-0.0198 -0.0187,-0.0427 -0.0312,-0.0625 -2.20826,-3.46916 -4.81314,-6.46138 -7.8125,-8.90625 -2.72961,-2.22454 -5.78698,-4.42057 -9.15625,-6.59375 -0.0196,-0.0131 -0.0429,-0.0181 -0.0625,-0.0312 -6.54942,-4.38191 -13.88447,-7.04027 -21.78125,-7.90625 -0.0326,-0.004 -0.0611,-0.0277 -0.0937,-0.0312 l 0,0.0312 c -1.94139,-0.24802 -3.87064,-0.40914 -5.84375,-0.46875 z m -319.09375,18.90625 c -4.42303,-0.29128 -9.42966,-0.24822 -15.09375,0.0625 -0.0104,-3e-5 -0.0208,-3e-5 -0.0312,0 -5.55278,0.32568 -11.07417,0.96896 -16.53125,2 -0.0313,0.0101 -0.0626,0.0205 -0.0937,0.0312 -2.96477,0.61703 -6.38199,1.27014 -10.1875,2 -0.0584,0.0112 -0.0976,0.02 -0.15625,0.0312 -3.30104,0.52831 -7.00428,1.30273 -10.90625,2.15625 -0.70021,-0.0947 -1.42151,-0.0302 -2.09375,0.1875 l -9.46875,3.15625 c -1.86732,0.61693 -3.23842,2.50219 -3.25,4.46875 l -0.15625,21.28125 c -0.0141,1.48773 0.72043,2.9638 1.91575,3.84967 1.19531,0.88586 2.82124,1.15918 4.2405,0.71283 l 5.375,-1.65625 -0.0937,-0.3125 c 0.0317,0.0194 0.27322,0.25235 0.28125,0.25 0.1751,-0.0513 0.43578,-0.11658 0.78125,-0.21875 0.69094,-0.20434 1.72218,-0.52371 3.09375,-0.9375 2.6317,-0.79376 5.76567,-1.65505 9.4375,-2.5625 0.0418,-0.01 0.0835,-0.0202 0.125,-0.0312 3.73667,-1.0298 7.70299,-1.87467 11.9375,-2.5625 4.03089,-0.65455 7.5835,-0.86954 10.59375,-0.6875 3.62259,0.37909 6.00439,1.39482 7.65625,2.8125 0.0412,0.0319 0.0828,0.0632 0.125,0.0937 0.95726,0.77488 2.03342,2.9992 1.6875,8.25 l -0.5625,8.71875 -15.21875,0.53125 -0.34375,0 c -0.15664,0.003 -0.31314,0.0131 -0.46875,0.0312 -0.0212,4.5e-4 -0.0413,-4.7e-4 -0.0625,0 -8.62274,0.19065 -16.45112,1.57451 -23.375,4.3125 -7.0263,2.77864 -13.07625,6.60466 -18.03125,11.46875 -4.92009,4.82994 -8.72136,10.54434 -11.34375,16.96875 -2.58689,6.33753 -4.12405,13.09027 -4.59375,20.21875 -0.42905,6.51148 0.24895,12.8318 2.0625,18.84375 1.78223,5.90821 4.35114,11.23429 7.75,15.90625 0.0308,0.0317 0.062,0.0629 0.0937,0.0937 3.59416,4.69825 7.94862,8.56239 12.96875,11.5 0.0618,0.0327 0.12425,0.064 0.1874,0.0939 5.28894,2.80218 11.14801,4.40013 17.40625,4.8125 4.55918,0.30041 8.89167,-0.0263 13,-1.09375 0.0203,-0.005 0.0422,-0.0262 0.0625,-0.0312 3.91334,-0.97274 8.46239,-2.67415 13.65625,-4.96875 l -0.0625,0.875 c -0.16011,2.47002 1.93669,4.86424 4.40625,5.03125 l 45.40625,2.96875 c 2.47002,0.16011 4.86424,-1.93669 5.03125,-4.40625 l 7,-106 c 0.51292,-7.78621 0.0476,-14.47473 -1.65625,-20.15625 -0.0143,-0.0547 -0.0479,-0.10166 -0.0625,-0.15625 -0.003,-0.01 0.003,-0.0217 0,-0.0312 -1.45742,-5.42499 -4.40005,-10.23723 -8.5,-14.1875 -0.0106,-0.0102 -0.0206,-0.021 -0.0312,-0.0312 -0.25936,-0.46926 -0.59912,-0.89396 -1,-1.25 -8.3315,-7.49651 -19.5006,-11.55418 -32.9063,-12.43765 z m 306.65625,15.5625 c 0.61523,-0.034 1.09177,-0.004 1.46875,0.0625 0.23689,0.0419 0.87144,0.26849 1.84375,1.40625 0.0305,0.0422 0.0618,0.0838 0.0937,0.125 0.81275,0.88524 1.99045,2.77657 3.15625,5.59375 1.11446,2.69352 2.32274,6.60828 3.53125,11.40625 l -16.25,6.53125 c -1.96138,-9.38549 -2.23227,-16.09085 -1.40625,-18.84375 0.0107,-0.0311 0.0211,-0.0624 0.0312,-0.0937 1.1346,-4.0105 2.4348,-5.21073 5.4375,-5.84375 0.0627,-0.009 0.12522,-0.0195 0.1875,-0.0312 0.70531,-0.17513 1.35149,-0.28184 1.90625,-0.3125 z m -320.25,69.21875 -2.09375,31.6875 c -0.0992,-0.007 -0.14615,0.007 -0.25,0 -0.0395,-0.005 -0.0544,-0.0263 -0.0937,-0.0312 -5.20929,-0.65099 -8.37045,-2.1352 -9.9375,-3.65625 -1.33603,-1.59984 -2.33815,-4.43409 -2.1875,-9.1875 7.1e-4,-0.0108 -7.2e-4,-0.0205 0,-0.0312 0.32797,-4.90431 1.71232,-9.05906 4.21875,-12.84375 1.95273,-2.94863 5.15272,-4.92406 10.34375,-5.9375 z m -98.1875,86.09375 c -2.56619,0.1042 -5.27715,0.32128 -8.125,0.65625 -5.58858,0.65772 -11.84591,1.59314 -18.8125,2.84375 l -58.56251,10.53125 c -2.43716,0.44356 -4.252325,3.06217 -3.812495,5.5 l 31.531255,175.68747 c 0.44356,2.4372 3.06217,4.2523 5.5,3.8125 l 49.21875,-8.8437 c 2.43716,-0.44356 4.25233,-3.06217 3.8125,-5.5 l -11.5625,-64.46877 5.90625,-1.0625 c 11.08515,-1.99018 20.46231,-4.60295 28.15625,-7.96875 7.35244,-3.2163 13.66518,-7.56601 18.9375,-12.9375 0.42934,-0.23961 0.821,-0.54659 1.15625,-0.90625 6.29776,-6.818 10.70682,-14.882 13.125,-23.90625 l 0.0312,0 c 2.58497,-9.07686 2.98949,-18.48474 1.28125,-28 -1.48467,-8.26831 -4.48107,-15.79278 -8.96875,-22.375 -0.0207,-0.0317 -0.0417,-0.0621 -0.0625,-0.0937 -4.33861,-6.59797 -9.98466,-11.97361 -16.8125,-15.9375 -0.0103,-0.0104 -0.0207,-0.0208 -0.0312,-0.0312 -3.70172,-2.10492 -7.53652,-3.71845 -11.46875,-4.875 -3.98142,-1.17054 -8.36599,-1.8568 -13.09375,-2.09375 -0.0198,-10e-4 -0.0427,0.001 -0.0625,0 -2.3074,-0.13132 -4.73677,-0.13457 -7.28125,-0.0312 z m -23,37.4375 c 5.32638,-0.20594 8.96818,0.89488 11.59375,2.875 0.0206,0.021 0.0415,0.0419 0.0625,0.0625 3.32733,2.41269 6.47451,8.06683 8.21875,17.78125 -1.4e-4,0.0208 -1.4e-4,0.0417 0,0.0625 1.91378,9.7788 1.05601,16.49643 -1.40625,20.53125 -0.0112,0.0183 -0.02,0.0443 -0.0312,0.0625 -2.2207,3.4233 -6.16007,5.96094 -12.34375,7.53125 l -8.71875,-48.625 c 0.86944,-0.0887 1.81467,-0.24992 2.625,-0.28125 z m 131.40625,2.03125 c -2.76413,0.011 -5.50895,0.12285 -8.28125,0.3125 -0.0312,-3.1e-4 -0.0625,-3.1e-4 -0.0937,0 -3.04164,0.26456 -6.52602,0.56912 -10.375,0.84375 -0.0576,0.004 -0.0985,-0.004 -0.15625,0 -3.33035,0.13384 -7.1163,0.42834 -11.09375,0.8125 -0.684,-0.16581 -1.40511,-0.17656 -2.09375,-0.0312 l -9.78125,2 c -1.91896,0.39138 -3.49818,2.08904 -3.75,4.03125 l -2.65625,21.125 c -0.18344,1.46605 0.36725,3.00569 1.43888,4.02282 1.07162,1.01714 2.63788,1.48681 4.09237,1.22718 l 5.53125,-1 -0.0625,-0.40625 c 0.0437,0.0387 0.30227,0.37684 0.3125,0.375 0.17499,-0.0314 0.43076,-0.0937 0.78125,-0.15625 0.70097,-0.12512 1.7571,-0.31573 3.15625,-0.5625 2.68519,-0.4734 5.91674,-0.93683 9.6875,-1.40625 0.0417,5.5e-4 0.0833,5.5e-4 0.125,0 3.84484,-0.583 7.88345,-1.00538 12.15625,-1.1875 4.09033,-0.17414 7.65057,0.0536 10.625,0.59375 0.02,0.004 0.0426,0.0276 0.0625,0.0312 3.50519,0.80544 5.72664,2.09754 7.1875,3.6875 0.0308,0.0317 0.062,0.0629 0.0937,0.0937 0.86371,0.88741 1.68253,3.2025 0.71875,8.375 l -1.59375,8.59375 -15.5,-1.3125 c -0.15612,-0.008 -0.31263,-0.008 -0.46875,0 -0.0208,-1.4e-4 -0.0417,-1.4e-4 -0.0625,0 -8.58641,-0.82912 -16.52298,-0.39989 -23.71875,1.5 -7.3126,1.93088 -13.7905,5.03999 -19.28125,9.28125 -5.44827,4.20857 -9.91452,9.42388 -13.28125,15.5 -3.31819,5.98858 -5.6288,12.50807 -6.9375,19.53125 -1.19612,6.41903 -1.24578,12.75893 -0.15625,18.9375 1.07258,6.08262 3.02153,11.71062 5.84375,16.75 0.0205,0.0315 0.0413,0.0627 0.0625,0.0937 3.00461,5.07438 6.85609,9.42274 11.5,12.93752 0.0512,0.0428 0.10329,0.0844 0.15625,0.125 4.9221,3.4083 10.54917,5.6941 16.71875,6.8437 4.51674,0.8417 8.90886,0.9782 13.09375,0.4063 0.0184,0 0.0441,0 0.0625,0 3.96516,-0.4981 8.65539,-1.6193 14.09375,-3.2813 l -0.15625,0.8125 c -0.45929,2.4381 1.34274,5.0742 3.78125,5.5313 l 44.75,8.3437 c 2.43808,0.4593 5.07408,-1.3427 5.53125,-3.7812 l 19.4375,-104.46877 c 1.42942,-7.67166 1.74098,-14.37401 0.71875,-20.21875 -0.009,-0.0634 -0.0221,-0.12416 -0.0312,-0.1875 -0.80441,-5.55894 -3.13085,-10.67187 -6.75,-15.09375 -0.20005,-0.50199 -0.4868,-0.96929 -0.84375,-1.375 -7.38932,-8.4305 -18.01282,-13.78905 -31.21875,-16.25 -4.33383,-0.80741 -9.32038,-1.38813 -15,-1.75 -0.0104,-3e-5 -0.0208,-3e-5 -0.0312,0 -2.78995,-0.16717 -5.57781,-0.26105 -8.34375,-0.25 z m -0.15625,84.53125 -5.8125,31.28125 c -0.0952,-0.0176 -0.15105,-0.0129 -0.25,-0.0312 -0.0387,-0.01 -0.0553,-0.0217 -0.0937,-0.0312 -5.03931,-1.24831 -7.99775,-3.06996 -9.40625,-4.78125 -1.17278,-1.76121 -1.79863,-4.71013 -1.0625,-9.5 0.004,-0.0254 -0.004,-0.037 0,-0.0625 0.91287,-4.76117 2.80575,-8.72142 5.71875,-12.15625 2.30092,-2.71313 5.65398,-4.32291 10.90625,-4.71875 z"
         style="font-size:250px;font-style:normal;font-variant:normal;font-weight:bold;font-stretch:normal;text-align:center;line-height:80.00000119%;letter-spacing:0px;word-spacing:0px;writing-mode:lr-tb;text-anchor:middle;opacity:0.85;fill:#2e3436;fill-opacity:1;stroke:none;filter:url(#filter4131);font-family:OliJo;-inkscape-font-specification:OliJo Bold"
         inkscape:connector-curvature="0"
         sodipodi:nodetypes="cccccccssccccscccccccccccccccccccccccccccccsccccccccccccccccccccccccccccccccccccccccccccccccccccccccccccccccccccccccccccccccccccccccccccccccccccccccccccccccccsccccccccccccccccccccscccccccccccccccccccccccccccccccccccccccsccccccccccccccccsccccccccccccsccccccccccssccccccccccccccccccccccccccccccccccccccsccccccsccccsccccccccccccccssssccccsccccccccccccccccccccccccccccccccccccscccccccccccccccccccccccccccccccccccccccccccccccccsccccccccccccccccccccssscccccccccccccccccccccccccccccscc" />
      <g
         id="text3287"
         style="font-size:250px;font-style:normal;font-variant:normal;font-weight:bold;font-stretch:normal;text-align:center;line-height:80.00000119%;letter-spacing:0px;word-spacing:0px;writing-mode:lr-tb;text-anchor:middle;fill:#73d216;fill-opacity:1;stroke:none;font-family:OliJo;-inkscape-font-specification:OliJo Bold"
         transform="translate(-155.37999,900.98287)">
        <path
           id="path3372"
           d="m 359.88519,-197.4901 -49.0412,4.53022 5.70301,61.73714 c -5.50744,0.17403 -9.95903,-5.7e-4 -13.3548,-0.52379 -3.24531,-0.70444 -6.28758,-1.92979 -9.12683,-3.67606 l 0.023,0.24894 c -5.87535,-3.80901 -10.91717,-10.37306 -15.12549,-19.69218 -4.20843,-9.319 -6.8812,-21.0395 -8.01829,-35.16151 -1.94972,-22.91771 0.16833,-39.85097 6.35416,-50.79985 6.17039,-11.11455 16.8821,-17.46009 32.13517,-19.03663 3.65103,-0.33711 8.07963,-0.41146 13.28581,-0.22303 5.19065,0.0228 10.14779,0.23438 14.87144,0.63476 4.72341,0.4007 8.69246,0.78725 11.90715,1.15964 3.38039,0.35739 5.07065,0.53601 5.07078,0.53584 l -2.54854,-24.87101 -8.37599,-0.98371 0.27193,0.22594 c -1.02654,-0.23975 -2.38488,-0.44902 -4.07502,-0.62782 -1.52442,-0.19376 -2.8751,-0.32005 -4.05203,-0.37889 l 0.24894,-0.023 c -3.89385,-0.47701 -6.5952,-0.7296 -8.10406,-0.75777 -1.35845,-0.20909 -2.37721,-0.36604 -3.05627,-0.47087 -4.8896,-0.38502 -9.67311,-0.52896 -14.35056,-0.43181 -4.69296,-0.0684 -9.19688,0.0966 -13.51176,0.49497 -13.11091,1.21131 -24.84539,4.63855 -35.20349,10.28175 -10.19221,5.62821 -18.71445,13.02682 -25.56672,22.19583 -6.85231,9.16932 -11.80105,19.92009 -14.84624,32.25235 -3.06052,12.16654 -3.93923,25.30305 -2.63613,39.40956 1.30311,14.10668 4.54274,26.528 9.7189,37.264 5.17614,10.73609 12.37946,19.86218 21.60998,27.37829 7.43289,6.17582 15.5193,10.36643 24.25926,12.57184 8.72452,2.03946 18.81243,2.53028 30.26375,1.47246 4.14891,-0.38326 8.1996,-0.92482 12.15207,-1.62469 4.11824,-0.71518 8.22125,-1.59632 12.30903,-2.64344 4.25353,-1.06243 8.65779,-2.30615 13.21281,-3.73119 4.7054,-1.60629 9.72751,-3.40922 15.06635,-5.40879 l 9.70465,-3.65818 -7.17476,-77.66932"
           inkscape:connector-curvature="0" />
        <path
           id="path3374"
           d="m 397.89608,-237.80929 c -3e-5,1.1e-4 1.36329,-0.41114 4.08996,-1.23376 2.72662,-0.8224 5.95766,-1.69518 9.69313,-2.61836 3.91266,-1.0783 8.06386,-1.97397 12.45361,-2.68702 4.38965,-0.71281 8.33071,-0.95421 11.8232,-0.72422 4.31293,0.45134 7.73413,1.76244 10.2636,3.93332 2.69563,2.18208 3.84624,6.26656 3.45183,12.25347 l -0.85472,12.97187 -19.83877,0.69715 0.24946,0.0164 c -8.52548,0.10646 -16.04663,1.44819 -22.56347,4.02521 -6.5169,2.57719 -12.00757,6.05704 -16.47202,10.43958 -4.46449,4.38269 -7.8918,9.50176 -10.28195,15.35722 -2.39017,5.85557 -3.8044,12.10945 -4.24272,18.76164 -0.39449,5.98705 0.23077,11.7072 1.87579,17.16046 1.64501,5.45331 3.99908,10.2852 7.06222,14.49569 3.22942,4.22147 7.09572,7.64975 11.59889,10.28486 4.68039,2.47976 9.8478,3.90592 15.50224,4.2785 4.15761,0.27394 8.021,-0.0561 11.59018,-0.99012 3.73538,-0.92306 8.35714,-2.62287 13.86527,-5.09942 l 0.24946,0.0164 c 1.89505,-0.8773 3.35248,-1.44938 4.3723,-1.71624 1.01969,-0.26686 1.52956,-0.4003 1.52963,-0.4003 l -0.52598,7.98269 45.40155,2.99153 6.98571,-106.0201 c 0.49299,-7.48367 -0.0162,-13.69725 -1.52771,-18.64078 -1.33444,-5.09864 -4.05399,-9.45353 -8.15868,-13.06468 l 0.0164,-0.24946 c -7.41104,-6.66821 -17.43613,-10.41879 -30.0753,-11.25174 -4.15772,-0.2738 -9.00251,-0.25897 -14.53437,0.0445 -5.36569,0.31471 -10.67007,0.96737 -15.91316,1.95798 -3.04835,0.63443 -6.51789,1.32447 -10.40863,2.07014 -3.71356,0.59059 -7.85928,1.40311 -12.43718,2.43755 l 0.0164,-0.24946 -9.47654,3.13372 -0.14985,21.28621 5.37014,-1.6505 m 44.81952,46.04642 4.55601,-0.70197 -2.76141,41.90913 c -0.85352,0.27784 -1.69601,0.38936 -2.52747,0.33454 -0.66529,-0.0438 -1.57997,-0.10407 -2.74405,-0.1808 -5.96516,-0.72708 -10.27912,-2.43106 -12.9419,-5.11197 -2.48562,-2.83619 -3.62527,-7.08698 -3.41895,-12.75238 0.37252,-5.65436 2.04266,-10.72217 5.01043,-15.20347 2.96767,-4.48118 7.91011,-7.24553 14.82734,-8.29308"
           inkscape:connector-curvature="0" />
        <path
           id="path3376"
           d="m 504.67496,-93.888611 48.5,0 0,-112.999999 c 1.1666,-0.16655 2.24993,-0.33322 3.25,-0.5 0.99993,-0.16655 2.33326,-0.16655 4,0 4.16659,0.33345 7.49992,0.83345 10,1.5 2.66658,0.50011 4.66658,1.66678 6,3.5 1.49991,1.66677 2.49991,4.16677 3,7.5 0.49991,3.33343 0.74991,7.83343 0.75,13.5 l 0,87.499999 48.5,0 0,-102.999999 c -1.4e-4,-3.66656 -0.25014,-6.99989 -0.75,-10 1.16653,-0.33322 2.24986,-0.49989 3.25,-0.5 0.99986,-0.16655 2.16652,-0.16655 3.5,0 4.16652,0.33345 7.58318,0.83345 10.25,1.5 2.83317,0.66678 4.99984,1.91678 6.5,3.75 1.49983,1.66677 2.49983,4.16677 3,7.5 0.6665,3.16676 0.99983,7.41676 1,12.75 l 0,87.999999 48.5,0 0,-95.499999 c -2.2e-4,-9.99989 -1.00022,-18.16655 -3,-24.5 -1.83354,-6.33321 -5.16687,-11.74987 -10,-16.25 -3.83353,-3.49986 -8.16686,-6.08319 -13,-7.75 -4.83352,-1.83319 -10.00018,-2.74985 -15.5,-2.75 -12.00016,1.5e-4 -26.83348,4.41681 -44.5,13.25 -4.33346,-4.66653 -8.66679,-8.08319 -13,-10.25 -4.33345,-2.16652 -9.25011,-3.16652 -14.75,-3 -5.16676,1.5e-4 -10.50009,0.91681 -16,2.75 -5.50008,1.83348 -12.50007,4.83347 -21,9 l 0,-13.75 -48.5,7.25 0,141.499999"
           inkscape:connector-curvature="0" />
        <path
           id="path3378"
           d="m 807.97779,-175.51183 c -11.72658,2.56912 -21.64898,1.68481 -29.76722,-2.65291 -8.11834,-4.33761 -14.63393,-12.59382 -19.54679,-24.76863 l 69.40434,-25.48111 -2.10917,-8.492 c -1.60708,-6.46997 -3.27643,-11.80831 -5.00806,-16.01505 -1.61024,-4.4084 -3.38319,-8.08958 -5.31885,-11.04354 -1.97602,-3.11543 -4.2559,-5.72618 -6.83963,-7.83227 -2.5839,-2.10579 -5.51131,-4.21225 -8.78224,-6.3194 -5.97647,-4.01085 -12.58189,-6.40591 -19.81629,-7.18519 -7.27468,-0.94072 -14.79404,-0.44697 -22.55811,1.48125 -10.02866,2.49099 -18.62477,6.60091 -25.78835,12.32979 -7.00184,5.689 -12.57063,12.65336 -16.70638,20.8931 -3.97398,8.19983 -6.31247,17.45302 -7.01548,27.75961 -0.70297,10.30678 0.35165,21.12145 3.16385,32.44403 2.49084,10.02869 6.1356,18.8262 10.93428,26.39254 4.96045,7.52626 10.77193,13.63898 17.43447,18.3382 6.82426,4.65909 14.27757,7.70221 22.35993,9.12939 8.0823,1.42719 16.65253,1.0159 25.7107,-1.23389 5.01426,-1.2454 9.94822,-2.81432 14.80191,-4.70675 5.01529,-1.93258 11.16398,-4.83358 18.44608,-8.70301 l 13.65377,-7.25514 8.00989,-4.0502 -9.48483,-22.63101 -3.70127,1.69207 c -5.09687,2.29633 -9.2226,4.00797 -12.3772,5.13491 -2.99303,1.08688 -6.02615,2.01194 -9.09935,2.77521 m -29.86265,-59.04265 -25.29993,10.14771 -0.24105,-0.97051 c -3.01312,-12.13131 -3.768,-20.70206 -2.26466,-25.71228 1.46312,-5.17173 4.47931,-8.23922 9.04857,-9.20249 1.941,-0.48196 3.71974,-0.58029 5.33625,-0.29499 1.61642,0.28557 3.15096,1.27828 4.60361,2.97813 1.41239,1.53835 2.76298,3.86472 4.05178,6.97912 1.2887,3.11464 2.57586,7.25993 3.8615,12.43588 l 0.90393,3.63943"
           inkscape:connector-curvature="0" />
        <path
           id="path3380"
           d="m 340.06087,84.851603 -12.41433,-69.144392 10.58082,-1.899702 c 10.8268,-1.943795 19.85125,-4.4953852 27.07336,-7.6547783 7.22193,-3.1592118 13.32081,-7.3868504 18.29667,-12.6829285 l 0.24607,-0.044179 c 5.81264,-6.2928052 9.83135,-13.6182602 12.05615,-21.9763882 2.38861,-8.38733 2.78774,-17.010232 1.19742,-25.86873 -1.3844,-7.709892 -4.14198,-14.580709 -8.27276,-20.612471 -3.96696,-6.060871 -9.06944,-10.902032 -15.30745,-14.523496 -3.39467,-1.930317 -6.87966,-3.421259 -10.45497,-4.472831 -3.57548,-1.05119 -7.5841,-1.686125 -12.02587,-1.904809 -4.27788,-0.24775 -9.15295,-0.0498 -14.62523,0.593864 -5.4724,0.644044 -11.65348,1.584477 -18.54327,2.821301 l -58.56358,10.514625 31.54388,175.690734 49.21309,-8.835819 m -15.0656,-93.8141259 -1.72246,0.3092536 -10.47044,-58.3175127 1.47639,-0.265074 c 9.1864,-1.649188 16.22777,-0.627435 21.12414,3.06526 4.86679,3.528974 8.22798,10.460749 10.08357,20.795348 2.04895,10.46947 1.36796,18.46565 -2.04298,23.988565 -3.44052,5.359103 -9.58992,8.83382 -18.44822,10.4241601"
           inkscape:connector-curvature="0" />
        <path
           id="path3382"
           d="m 414.31126,-32.536829 c -3e-5,1.09e-4 1.40233,-0.247181 4.2071,-0.74187 2.80468,-0.49447 6.11621,-0.979379 9.93459,-1.45473 4.01266,-0.608443 8.24061,-1.007354 12.68387,-1.196736 4.44312,-0.189156 8.3851,0.03679 11.82594,0.677827 4.2294,0.957767 7.47172,2.66392 9.72697,5.118465 2.41892,2.48529 3.07887,6.677113 1.97984,12.575481 l -2.38143,12.7800157 -19.78217,-1.651782 0.24577,0.045797 c -8.47834,-0.9016176 -16.10534,-0.4579432 -22.88101,1.3310246 -6.77576,1.789132 -12.63913,4.59586493 -17.59013,8.4202073 -4.95105,3.8244897 -8.9592,8.5027424 -12.02446,14.0347724 -3.06529,5.532149 -5.20855,11.575118 -6.42978,18.128924 -1.09913,5.898505 -1.15411,11.652462 -0.16494,17.261889 0.98915,5.609475 2.75582,10.685666 5.30001,15.228588 2.70801,4.57347 6.14215,8.43456 10.30243,11.58328 4.35461,3.015399 9.31732,5.042129 14.88812,6.080195 4.09612,0.763268 7.97144,0.892022 11.62598,0.386261 3.81828,-0.475249 8.6085,-1.617063 14.37067,-3.425448 l 0.24577,0.0458 c 1.98543,-0.647241 3.50025,-1.043112 4.54446,-1.187613 1.04407,-0.14451 1.56614,-0.216763 1.56621,-0.216759 l -1.46549,7.864625 44.73005,8.334997 19.46359,-104.4520512 c 1.37377,-7.3729948 1.60227,-13.6032248 0.68549,-18.6907098 -0.72266,-5.220594 -2.90861,-9.866308 -6.55787,-13.937157 l 0.0458,-0.245769 c -6.57125,-7.497154 -16.08296,-12.405971 -28.53517,-14.726466 -4.09626,-0.763145 -8.90886,-1.320855 -14.43782,-1.673129 -5.36529,-0.321477 -10.70963,-0.30013 -16.03305,0.06404 -3.10195,0.269804 -6.62872,0.545071 -10.58031,0.8258 -3.75733,0.14768 -7.97001,0.464668 -12.63806,0.950967 l 0.0458,-0.24577 -9.78042,1.992066 -2.66387,21.119394 5.52753,-1.004426 m 39.06495,51.019527 4.60704,-0.158738 -7.69384,41.289281 c -0.88037,0.175055 -1.73013,0.186245 -2.54929,0.03357 -0.65546,-0.122107 -1.55661,-0.290028 -2.70347,-0.503764 -5.83746,-1.426794 -9.91987,-3.62856 -12.24724,-6.605306 -2.13309,-3.110012 -2.76251,-7.465682 -1.88824,-13.067021 1.038,-5.570733 3.29523,-10.405716 6.7717,-14.504964 3.47635,-4.099144 8.71079,-6.260162 15.70334,-6.483061"
           inkscape:connector-curvature="0" />
        <path
           id="path3384"
           d="m 568.82351,-40.960078 c -5e-5,1.18e-4 -5e-5,1.18e-4 0,0 -0.0165,-0.165738 0.2241,-0.273299 0.72172,-0.322684 0.82923,-0.08199 2.24721,-0.138655 4.25395,-0.169986 2.15607,-0.213372 4.49447,-0.277429 7.01521,-0.192171 2.68647,0.06907 5.39763,0.386809 8.1335,0.953212 2.71931,0.400782 5.30567,1.14958 7.7591,2.246396 l 18.1514,8.251625 -4.58183,-46.273717 -2.58637,-0.748798 c -2.4206,-0.765066 -4.72534,-1.206787 -6.91422,-1.325163 -2.02319,-0.134488 -4.11281,-0.09506 -6.26885,0.118271 -4.4946,0.277702 -8.42586,1.169404 -11.79381,2.675108 -3.20221,1.489587 -6.96104,4.122772 -11.2765,7.899561 l -4.78104,4.995405 -1.45338,-14.678222 -47.54961,11.993618 13.94256,140.811417 48.26398,-4.7789 -11.03581,-111.454972"
           inkscape:connector-curvature="0" />
        <path
           id="path3386"
           d="m 671.42475,40.802989 11.08637,-69.622858 30.36742,4.835545 4.56035,-28.63919 -30.36742,-4.835545 4.63898,-29.132969 -20.49183,-3.26301 -16.97089,17.549616 0.0393,-0.246889 c -0.19085,0.138533 -0.87176,0.705174 -2.04273,1.699923 -1.00647,1.021253 -2.53289,2.128325 -4.57925,3.321219 -1.88185,1.219391 -3.78043,2.014052 -5.69575,2.383983 l -17.48512,3.291354 -3.69546,23.207619 13.82581,2.201549 -13.28792,83.448674 c -1.70359,10.698567 0.005,19.577669 5.12495,26.637331 5.1464,6.895076 13.25968,11.056017 24.33986,12.482836 1.97507,0.314498 3.7987,0.520499 5.47089,0.618005 1.67208,0.09749 3.43962,0.12579 5.30262,0.08491 1.83667,0.123695 3.9465,0.12212 6.32949,-0.0047 2.38286,-0.126864 5.36808,-0.32658 8.95564,-0.599148 l 0.0393,-0.24689 10.55492,-1.103937 c 1.01368,-0.0073 2.64283,-0.169845 4.88746,-0.487493 2.24446,-0.317664 3.36673,-0.476492 3.36682,-0.476485 l 3.69546,-23.207619 -4.52264,-0.213862 c -2.02762,0.0147 -3.54827,0.02571 -4.56195,0.03303 -0.98765,-0.157237 -2.12669,-0.422995 -3.41714,-0.797277 -4.0887,-0.819798 -7.34124,-1.590865 -9.75765,-2.313203 -2.22574,-0.860684 -3.91832,-1.88965 -5.07775,-3.086901 -0.99496,-1.170997 -1.49975,-2.770273 -1.51436,-4.797832 0.0115,-2.192098 0.30553,-5.098682 0.88219,-8.719762"
           inkscape:connector-curvature="0" />
        <path
           id="path3388"
           d="m 805.11877,-119.3365 -17.71734,82.396731 c -7e-5,7.2e-5 -0.94348,-1.916293 -2.83025,-5.749101 -1.72105,-3.849074 -3.9552,-8.652303 -6.70247,-14.409702 -2.58152,-5.773635 -5.46104,-12.020296 -8.63856,-18.740002 -3.01176,-6.735905 -5.88307,-12.899638 -8.61393,-18.491219 -2.58151,-5.773597 -4.81566,-10.576827 -6.70246,-14.409697 -1.72102,-3.84901 -2.58151,-5.77359 -2.58148,-5.77374 l -48.76155,4.82817 66.87682,142.604314 c 0.0164,0.165859 -0.15851,0.936842 -0.52465,2.312952 -0.18396,1.525544 -0.59202,3.324504 -1.22418,5.396886 -0.44998,2.221805 -1.09861,4.128327 -1.94589,5.71957 -1.69471,3.182456 -3.45507,5.7015 -5.28107,7.55714 -1.80966,2.02146 -4.55612,3.884477 -8.23938,5.589058 -2.57161,1.09201 -5.44945,1.628184 -8.63352,1.608522 -3.18412,-0.01971 -6.21879,-0.221676 -9.10401,-0.605894 -2.88524,-0.384267 -5.36405,-0.892493 -7.43642,-1.524679 -1.8901,-0.4828 -2.83515,-0.724188 -2.83515,-0.724166 l 2.03724,28.186428 c -1e-5,-5.1e-5 1.01155,0.06727 3.03467,0.201964 2.03952,0.300448 4.40255,0.485174 7.0891,0.554179 2.86879,0.218336 5.72939,0.353795 8.5818,0.406379 3.03464,0.201912 5.38125,0.220783 7.03984,0.05661 12.47197,-0.900015 21.97005,-4.771402 28.49427,-11.614173 6.68995,-6.859274 11.77476,-17.24416 15.25444,-31.154689 l 41.45719,-167.399561 -32.09306,3.17772"
           inkscape:connector-curvature="0" />
      </g>
      <path
         sodipodi:nodetypes="cssscscsssscsscsscscscsscscsscssccscscscsc"
         transform="translate(0,557.36178)"
         inkscape:connector-curvature="0"
         id="path3765"
         d="m 233.34007,44.726588 c 0,0 -0.82331,-13.456272 -30.0037,-22.235249 C 174.15598,13.712363 116.61851,9.6106823 74.285998,41.080649 -12.556218,105.6391 35.547901,221.09887 43.751263,229.75797 c 8.203361,8.6591 21.419889,23.6986 21.419889,23.6986 0,0 -4.601939,7.47415 8.203362,66.53838 14.657861,67.60913 22.787116,124.87339 22.787116,124.87339 0,0 3.645938,15.95099 13.67227,22.78712 10.02633,6.83614 10.48207,10.93782 36.91513,8.20336 26.43305,-2.73445 46.02997,-7.74762 51.04314,-10.02633 5.01316,-2.27871 6.83613,-1.82297 13.21652,-8.20336 6.3804,-6.38039 6.3804,-6.38039 6.3804,-6.38039 0,0 10.02633,11.8493 25.06582,14.58375 15.0395,2.73446 22.78712,4.55742 27.34454,3.64594 4.55743,-0.91148 5.46891,-1.36723 5.46891,-1.36723 0,0 17.31821,10.93782 49.22017,11.39356 31.90196,0.45574 36.91513,-6.83613 41.01681,-13.21653 4.10168,-6.38039 4.10168,-9.11484 4.10168,-9.11484 0,0 9.11485,3.64594 35.09216,0 25.97731,-3.64594 39.64958,-8.65911 39.64958,-8.65911 0,0 20.50841,20.05267 50.13166,21.87563 29.62325,1.82297 61.06947,-5.92465 61.06947,-5.92465 0,0 48.76443,20.05267 80.66639,-3.64593 31.90196,-23.6986 36.91513,-37.82662 40.56107,-51.04314 3.64593,-13.21653 42.38403,-172.72634 42.38403,-172.72634 0,0 3.1902,-13.67227 2.27871,-19.59692 -0.91148,-5.92465 -3.19019,-10.48208 -3.19019,-10.48208 0,0 12.76078,-18.22969 6.83613,-37.82661 -5.92465,-19.59692 -9.11485,-23.24286 -10.93781,-26.43305 -1.82297,-3.1902 -6.3804,-8.20337 -6.3804,-8.20337 0,0 8.20336,-13.21652 3.64594,-32.3577 C 706.85634,83.008943 693.18407,30.142833 636.67202,19.66076 580.15997,9.1786868 544.61207,46.093815 544.61207,46.093815 l -15.49524,19.596919 c 0,0 -14.12801,-4.557423 -29.1675,-3.190196 -15.0395,1.367227 -32.35771,8.203362 -32.35771,8.203362 0,0 -13.67227,-7.291877 -28.25602,-7.747619 -14.58376,-0.455743 -25.52157,3.645938 -25.52157,3.645938 0,0 -8.65911,-5.468908 -21.87563,-4.557423 -13.21653,0.911485 -29.16751,3.645938 -29.16751,3.645938 0,0 -16.40673,-23.6986 -50.5874,-28.256023 -34.18067,-4.557424 -78.84342,7.291877 -78.84342,7.291877 z"
         style="fill:none;stroke:#c4a000;stroke-width:10;stroke-linecap:butt;stroke-linejoin:miter;stroke-miterlimit:4;stroke-opacity:1;stroke-dasharray:none" />
      <path
         transform="translate(0,557.36178)"
         inkscape:connector-curvature="0"
         id="path3767"
         d="m 560.56305,358.96092 -0.22787,4.32955 2.96233,0.45574 z"
         style="fill:none;stroke:#c4a000;stroke-width:5;stroke-linecap:butt;stroke-linejoin:miter;stroke-opacity:1;stroke-miterlimit:4;stroke-dasharray:none" />
    </g>
  </g>
</svg>
